<svg width="150" height="115" viewBox="0 0 150 115" fill="none" xmlns="http://www.w3.org/2000/svg">
<g clip-path="url(#clip0_1_8273)">
<g clip-path="url(#clip1_1_8273)">
<path d="M9.09491 67.7311L11.2504 63.3144H20.3467L20.7203 67.7311H27.6898L25.3618 42C23.3644 42.4274 21.6544 42.399 20.2174 42.2992C19.154 42.2137 18.5504 42.0998 17.8319 42.1995C15.7339 42.4987 13.6933 44.6643 12.8599 46.4453L1.99609 67.7311H9.09491ZM46.0835 52.3865L42.879 68.586C42.0311 72.6323 40.2636 73.8718 36.8004 74L38.4674 65.1523C37.1022 67.4177 35.5071 68.0445 32.7768 67.8736C31.4116 67.7881 30.1902 67.4177 29.5292 66.5486C28.7819 65.5512 28.6238 63.984 29.0118 62.0178L29.9315 57.3589C30.9805 52.9991 34.0845 52.1585 36.2256 52.1585C41.1258 52.301 42.9796 53.3411 46.0835 52.3865ZM37.8207 56.0766C36.2544 56.0766 35.2197 56.0624 34.5874 59.0971L34.2138 60.878C34.0414 61.7471 33.9839 62.7017 34.2282 63.2004C34.7168 64.3117 36.8866 64.1122 37.8207 63.7275C38.6111 63.3571 39.0422 62.374 39.3296 61.163L39.775 59.0543C40.1918 56.6323 39.6888 56.0766 37.8207 56.0766ZM20.0593 58.2707H13.7939L19.2402 47.0579L20.0593 58.2707Z" fill="#2F2F2F"/>
<path d="M113.566 62.6016C112.819 65.5366 111.54 67.0326 108.608 67.6025C106.28 68.0584 103.176 68.0157 101.236 67.3888C99.7994 66.9329 99.1671 65.9355 98.9372 64.7815C98.4917 62.5874 99.627 57.7147 100.59 55.8198C101.61 53.8109 102.846 52.9703 105.03 52.5001C107.214 52.0299 110.031 52.0299 111.942 52.6141C113.623 53.127 114.342 54.0103 114.514 55.7628C114.615 56.7744 114.5 58.0281 114.184 59.5241L113.896 60.9346H104.067L103.909 61.704C103.651 63.2712 103.737 64.3968 105.504 64.3968H106.352C107.344 64.3968 108.249 64.0834 108.694 62.6301H113.566V62.6016ZM85.9323 46.4734C87.901 45.6328 90.5594 45.932 93.1748 46.8011L91.5222 50.0495C90.9905 49.6506 90.1571 49.4369 89.4242 49.4939C88.5045 49.5651 87.9872 49.9783 87.671 50.8474C87.513 51.2891 87.4124 51.8305 87.2974 52.3861H89.8984L89.1655 56.0762H86.5645L84.2222 67.6737L79.2645 67.688L82.4978 51.4743C83.1301 48.2686 84.3947 47.2997 85.9323 46.4734ZM88.5907 67.688L91.6228 52.3576C93.6059 52.9703 95.2441 52.7851 96.5805 52.4716C98.2474 52.0869 99.9431 52.0157 100.863 52.5571L99.0953 56.3327C98.8366 56.2472 97.9313 56.0762 97.0978 56.2045C96.3937 56.3184 95.7614 56.6461 95.5746 57.5295L93.5484 67.6737L88.5907 67.688ZM79.5951 52.3861L76.563 67.688H71.6197L72.0939 65.1519C70.7287 67.4173 68.9756 68.0442 66.2453 67.8732C64.8801 67.7877 63.6012 67.4173 62.9401 66.5482C62.1929 65.5509 62.0636 63.9836 62.4516 62.0175L63.4 57.3585C64.449 52.9988 67.5529 52.1582 69.6941 52.1582C74.6086 52.3006 76.4911 53.3407 79.5951 52.3861ZM71.3035 56.0762C69.7372 56.0762 68.6738 56.1902 68.0703 59.0967L67.6966 60.8777C67.5242 61.7468 67.4667 62.7013 67.711 63.2C68.1996 64.3113 70.3695 64.1119 71.3035 63.7272C72.0939 63.3567 72.4531 62.3737 72.7549 61.1626L73.2004 59.054C73.6171 56.6319 73.1429 56.0762 71.3035 56.0762ZM62.6096 52.3861L59.6063 67.6737H54.5911L55.1516 65.0094C53.9301 67.4173 52.4643 67.859 50.0071 67.859C45.8829 67.859 45.3368 65.5509 45.8541 62.8723L47.9234 52.4004H52.9529L51.1279 61.4048C50.7543 63.2 50.8549 64.0264 52.5793 64.0264C54.3468 63.9124 55.4102 62.9578 55.6114 61.875L57.5082 52.4004L62.6096 52.3861ZM131.184 67.688L134.518 50.6764C135.351 46.3309 138.397 45.9177 140.438 45.875L138.599 54.9364H138.771C139.906 52.7708 141.156 52.2436 143.757 52.2436C147.882 52.2436 148.37 54.3523 147.781 57.4013L145.784 67.6737H140.711L142.55 58.6408C142.924 56.7744 142.637 56.1332 140.912 56.1332C138.972 56.1332 138.196 57.3015 137.823 59.2107L136.141 67.688H131.184ZM115.333 62.9008H120.277C120.076 64.3683 120.722 64.6248 122.044 64.6248H122.892C124.229 64.525 124.961 64.6818 125.249 63.3425C125.622 61.5473 124.329 61.875 123.237 61.7895C122.317 61.761 121.426 61.761 120.507 61.6898C119.17 61.5615 117.618 61.2481 116.957 60.5215C115.98 59.4529 116.339 57.9284 116.655 56.6604C117 55.2214 117.546 54.0388 119.055 53.1412C120.219 52.4004 122.001 52.1867 124.674 52.1724C127.074 52.1582 129.157 52.2721 130.264 53.2695C131.054 53.9818 131.141 54.9079 130.868 56.176L130.753 56.7459H126.054C126.111 56.1475 125.91 55.8768 125.651 55.6773C125.393 55.4778 124.875 55.4493 124.229 55.4493H123.596C123.108 55.4493 122.289 55.5348 121.987 55.72C121.642 55.948 121.556 56.2472 121.455 56.7744C121.369 57.2018 121.441 57.4013 121.613 57.5865C121.771 57.7432 122.289 57.8999 122.691 57.9427L126.298 58.0994C127.922 58.2419 129.014 58.5126 129.675 59.1252C130.652 59.9516 130.465 61.6328 130.178 62.8296C129.862 64.1831 129.258 65.6363 127.72 66.6764C126.628 67.4315 124.631 67.859 121.599 67.9302C118.624 68.0014 116.756 67.7165 115.851 66.7477C115.132 65.9783 114.931 64.7672 115.276 63.1145L115.333 62.9008ZM104.656 58.1279H109.514L109.6 57.7574C109.858 56.2899 109.399 55.7058 107.976 55.7058H107.272C105.964 55.7058 105.203 56.1332 104.786 57.6435L104.656 58.1279Z" fill="#2F2F2F"/>
</g>
</g>
<defs>
<clipPath id="clip0_1_8273">
<rect width="150" height="115" fill="white"/>
</clipPath>
<clipPath id="clip1_1_8273">
<rect width="150" height="115" fill="white"/>
</clipPath>
</defs>
</svg>
