<svg width="150" height="115" viewBox="0 0 150 115" fill="none" xmlns="http://www.w3.org/2000/svg">
<g clip-path="url(#clip0_1_8200)">
<g clip-path="url(#clip1_1_8200)">
<path d="M70.1931 42.606L66.0971 30.4699C66.3207 30.3403 66.5561 30.2107 66.7915 30.0929L65.6851 26.6641C65.4026 26.6877 65.1201 26.723 64.8494 26.7584C64.7199 26.7702 64.5905 26.7937 64.4727 26.8055C64.461 26.8055 64.4374 26.8055 64.4257 26.8173L69.8518 42.877C69.9577 42.7827 70.0754 42.7002 70.1931 42.606Z" fill="#2F2F2F"/>
<path d="M68.886 43.6791L63.5658 32.0732C63.7777 31.92 63.9895 31.7787 64.2132 31.6373L62.2475 27.207C61.9651 27.2659 61.6943 27.3366 61.4236 27.3955C61.3059 27.4309 61.1764 27.4544 61.0587 27.4898C61.0352 27.4898 61.0234 27.5016 60.9999 27.5016L68.5564 43.9736C68.6741 43.8794 68.7801 43.7733 68.886 43.6791Z" fill="#2F2F2F"/>
<path d="M67.7317 44.8129L61.2462 33.8668C61.4463 33.7019 61.6347 33.5369 61.8348 33.372L58.8569 28.1523C58.5862 28.2465 58.3154 28.3408 58.0447 28.4468C57.927 28.494 57.8211 28.5293 57.7034 28.5764C57.6798 28.5882 57.6681 28.5882 57.6445 28.6L67.4374 45.1428C67.5316 45.0367 67.6375 44.9189 67.7317 44.8129Z" fill="#2F2F2F"/>
<path d="M66.718 45.9994L59.1615 35.8193C59.3381 35.6308 59.5146 35.454 59.7029 35.2773L55.5362 29.5156C55.2773 29.6452 55.0183 29.7748 54.7594 29.9044C54.6535 29.9633 54.5475 30.0105 54.4416 30.0694C54.4181 30.0812 54.3945 30.0929 54.371 30.1047L66.4356 46.3529C66.5297 46.2351 66.6239 46.1173 66.718 45.9994Z" fill="#2F2F2F"/>
<path d="M65.8373 47.227L57.292 37.9306C57.445 37.7303 57.6098 37.5417 57.7746 37.3414L52.3485 31.2852C52.1013 31.4384 51.8541 31.6033 51.6187 31.7683C51.5246 31.839 51.4304 31.8979 51.3362 31.9686C51.3127 31.9804 51.2892 32.0039 51.2656 32.0157L65.5901 47.5923C65.6725 47.4627 65.7549 47.3449 65.8373 47.227Z" fill="#2F2F2F"/>
<path d="M65.0731 48.4758L55.645 40.1691C55.7863 39.957 55.9275 39.7567 56.0688 39.5564L49.3597 33.4766C49.1361 33.6415 48.9124 33.8301 48.6888 34.0304C48.6064 34.1011 48.524 34.1718 48.4298 34.2542C48.4063 34.266 48.3945 34.2896 48.371 34.3131L64.873 48.8529C64.9318 48.7233 65.0024 48.5937 65.0731 48.4758Z" fill="#2F2F2F"/>
<path d="M64.2609 50.1351C64.3198 50.0055 64.3786 49.8641 64.4375 49.7345L54.2326 42.4882C54.3503 42.2761 54.4798 42.0523 54.5975 41.8402L46.6172 36.0078C46.4053 36.2199 46.2052 36.432 46.0169 36.644C45.9345 36.7265 45.8639 36.809 45.7933 36.9033C45.7697 36.9268 45.7462 36.9504 45.7226 36.974C45.7226 36.974 54.009 42.877 54.0207 42.8653L64.2609 50.1351Z" fill="#2F2F2F"/>
<path d="M63.9062 51.007L53.0304 44.8918C53.1364 44.668 53.2305 44.4441 53.3365 44.2202L44.1674 38.8945C43.9908 39.1301 43.8143 39.3658 43.6495 39.6132C43.5906 39.7075 43.52 39.79 43.4612 39.8842C43.4376 39.9078 43.4258 39.9431 43.4023 39.9667L63.7532 51.4194C63.8003 51.278 63.8473 51.1484 63.9062 51.007Z" fill="#2F2F2F"/>
<path d="M63.4832 52.2935L52.066 47.3684C52.1484 47.1327 52.2308 46.9089 52.3132 46.6732L42.0848 42.0898C41.9436 42.349 41.7905 42.6082 41.6493 42.8674C41.6022 42.9617 41.5434 43.056 41.4963 43.1502C41.4845 43.1856 41.461 43.2091 41.4492 43.2445L63.3773 52.7059C63.4008 52.5763 63.4362 52.4349 63.4832 52.2935Z" fill="#2F2F2F"/>
<path d="M63.1526 53.5906L51.2999 49.8908C51.3588 49.6552 51.4177 49.4195 51.4883 49.1839L40.3653 45.543C40.2476 45.814 40.1417 46.0968 40.0358 46.3678C40.0005 46.4739 39.9651 46.5681 39.918 46.6624C39.9062 46.6977 39.8946 46.7331 39.8828 46.7684L63.0586 54.003C63.0939 53.8733 63.1291 53.732 63.1526 53.5906Z" fill="#2F2F2F"/>
<path d="M62.9298 54.8744L50.7829 52.4472C50.8182 52.2115 50.8652 51.9641 50.9123 51.7285L39.1185 49.207C39.0361 49.4898 38.9655 49.7843 38.8948 50.0789C38.8713 50.1849 38.8478 50.2792 38.8242 50.3852C38.8124 50.4206 38.8124 50.4559 38.8007 50.4913L62.8827 55.2986C62.8945 55.1572 62.9063 55.0158 62.9298 54.8744Z" fill="#2F2F2F"/>
<path d="M62.7876 56.1694L50.4641 55.0383C50.4876 54.7908 50.4994 54.5552 50.5347 54.3078L38.3171 53.0117C38.27 53.3062 38.2347 53.6008 38.1994 53.9071C38.1876 54.0132 38.1759 54.1192 38.1641 54.2253C38.1641 54.2606 38.1523 54.296 38.1523 54.3313L62.7641 56.5936C62.7758 56.4522 62.7758 56.3108 62.7876 56.1694Z" fill="#2F2F2F"/>
<path d="M50.3823 58.0531L62.7529 57.8882C62.7529 57.7585 62.7529 57.6289 62.7529 57.5111C62.7529 57.4993 62.7529 57.4758 62.7529 57.464L50.3823 57.6289C50.3823 57.5936 50.3823 57.5465 50.3823 57.5111C50.3823 57.3108 50.3823 57.1105 50.394 56.9102H38.0117C37.9999 57.0987 37.9999 57.299 37.9999 57.4993C37.9999 57.5936 37.9999 57.6996 37.9999 57.7939C37.9999 57.8999 37.9999 58.006 37.9999 58.112C37.9999 58.1474 37.9999 58.1827 37.9999 58.2298L46.2627 58.112C46.2744 58.112 50.3823 58.0767 50.3823 58.0531Z" fill="#2F2F2F"/>
<path d="M62.7874 58.75L50.5698 60.211C50.5345 59.9754 50.4992 59.728 50.4757 59.4923L38.1757 60.7884C38.211 61.083 38.2463 61.3775 38.2816 61.6839C38.2934 61.7899 38.3051 61.896 38.3287 62.002C38.3287 62.0373 38.3405 62.0727 38.3405 62.108L62.8227 59.186C62.7992 59.0328 62.7992 58.8914 62.7874 58.75Z" fill="#2F2F2F"/>
<path d="M62.9181 60.043L51.1242 62.7413C51.0653 62.5174 50.9947 62.2935 50.9476 62.0697L38.8242 64.65C38.8948 64.9328 38.9537 65.2038 39.0361 65.4866C39.0596 65.5809 39.0832 65.6633 39.1067 65.7576C39.1185 65.8047 39.1302 65.8519 39.142 65.899L62.9769 60.4554C62.9534 60.3258 62.9298 60.1844 62.9181 60.043Z" fill="#2F2F2F"/>
<path d="M63.8705 63.9219L54.6778 69.4244C54.5366 69.2594 54.4071 69.0945 54.2659 68.9177L43.4843 75.1743C43.6373 75.3982 43.8021 75.622 43.9551 75.8341C44.0257 75.9166 44.0728 75.9873 44.1199 76.058C44.1552 76.1051 44.1905 76.1522 44.2258 76.1994L64.0352 64.3225C63.9764 64.1929 63.9293 64.0515 63.8705 63.9219Z" fill="#2F2F2F"/>
<path d="M64.4017 65.207L56.3979 71.2279C56.2448 71.0865 56.0801 70.9333 55.927 70.7801L45.8281 78.156C46.0047 78.3563 46.193 78.5566 46.3695 78.7569C46.4284 78.8159 46.4873 78.8866 46.5461 78.9455C46.5814 78.9808 46.6167 79.0279 46.6638 79.0633L64.5782 65.5958C64.5312 65.4662 64.4605 65.3366 64.4017 65.207Z" fill="#2F2F2F"/>
<path d="M65.049 66.4805L58.3163 72.7488C58.1398 72.631 57.9632 72.5014 57.7984 72.3718L48.4999 80.7963C48.7 80.9731 48.9001 81.1498 49.1119 81.3266C49.1826 81.3855 49.2532 81.4444 49.3238 81.5033C49.3591 81.5386 49.4062 81.574 49.4415 81.6093L65.2726 66.8693C65.1902 66.7397 65.1196 66.6101 65.049 66.4805Z" fill="#2F2F2F"/>
<path d="M65.8013 67.7383L60.3517 73.9948C60.1634 73.9006 59.975 73.7945 59.7985 73.6885L51.3945 83.0792C51.6181 83.2324 51.83 83.3738 52.0536 83.527C52.136 83.5741 52.2066 83.633 52.289 83.6801C52.3361 83.7037 52.3714 83.739 52.4185 83.7626L66.0485 68.1153C65.9661 67.9857 65.8837 67.8679 65.8013 67.7383Z" fill="#2F2F2F"/>
<path d="M66.6979 68.9766L62.5077 74.9503C62.3076 74.8796 62.1192 74.7972 61.9191 74.7265L54.5156 84.9773C54.751 85.0951 54.9864 85.2248 55.2218 85.3426C55.3042 85.3897 55.3984 85.4251 55.4808 85.4722C55.5279 85.4958 55.5632 85.5075 55.6103 85.5311L66.9804 69.33C66.8744 69.2004 66.7803 69.0944 66.6979 68.9766Z" fill="#2F2F2F"/>
<path d="M67.7076 70.168L64.6944 75.588C64.4943 75.5409 64.2942 75.4937 64.0824 75.4348L57.7617 86.4516C58.0089 86.5458 58.2561 86.6401 58.4915 86.7226C58.5856 86.7579 58.6798 86.7932 58.774 86.8168C58.821 86.8286 58.8563 86.8522 58.9034 86.8639L68.0137 70.4861C67.9195 70.3919 67.8136 70.2858 67.7076 70.168Z" fill="#2F2F2F"/>
<path d="M68.8737 71.3203L66.8962 75.9626C66.6844 75.9391 66.4843 75.9155 66.2842 75.8919L61.1288 87.5449C61.376 87.6038 61.6349 87.6745 61.8821 87.7334C61.9763 87.757 62.0822 87.7806 62.1764 87.8041C62.2234 87.8159 62.2587 87.8277 62.3058 87.8277L69.215 71.6266C69.0973 71.5206 68.9914 71.4145 68.8737 71.3203Z" fill="#2F2F2F"/>
<path d="M70.1926 72.3945L69.0626 76.0471C68.9802 76.0471 68.8978 76.0471 68.8154 76.0471C68.7095 76.0471 68.6036 76.0471 68.4859 76.0471L64.5546 88.2067C64.8018 88.2421 65.0372 88.2656 65.2843 88.301C65.3785 88.3128 65.4727 88.3245 65.5668 88.3363C65.6139 88.3363 65.6728 88.3481 65.7198 88.3481L70.5574 72.6537C70.428 72.5712 70.3103 72.4887 70.1926 72.3945Z" fill="#2F2F2F"/>
<path d="M77.0891 40.921L77.2539 39.3775C77.1126 39.4128 76.9596 39.4482 76.8184 39.4835L77.9836 26.6758C77.8659 26.6876 77.7482 26.6994 77.6188 26.7112L76.4535 39.566L76.3593 40.5675C76.3711 40.5793 76.3947 40.5793 76.4064 40.5911C76.5006 40.6382 76.6065 40.6853 76.7007 40.7325C76.8302 40.7914 76.9596 40.8503 77.0891 40.921Z" fill="#2F2F2F"/>
<path d="M74.8065 27.1689C74.8771 27.1571 74.936 27.1453 75.0066 27.1217C74.936 27.11 74.8771 27.0982 74.8065 27.0864C74.7829 27.0864 74.7476 27.0746 74.7241 27.0746C74.6064 27.0393 74.4887 27.0275 74.371 27.0039V27.2631L74.5475 40.1886C74.6888 40.1297 74.83 40.0826 74.9713 40.0237L74.8065 27.1689Z" fill="#2F2F2F"/>
<path d="M72.8277 40.9568C72.9571 40.8861 73.0984 40.8154 73.2279 40.7565L71.7213 27.9841C71.9802 27.9017 72.2274 27.8192 72.4863 27.7485L72.3804 26.6998C72.1097 26.6645 71.839 26.6409 71.5565 26.6174C71.427 26.6056 71.2858 26.5938 71.1563 26.582C71.1445 26.582 71.1328 26.582 71.121 26.582L71.2975 28.1255L72.8277 40.9568Z" fill="#2F2F2F"/>
<path d="M71.2611 41.8645C71.3906 41.782 71.52 41.6995 71.6377 41.6288L68.8129 29.104C69.06 28.9979 69.2954 28.8919 69.5426 28.7976L69.06 26.5C68.9776 26.5 68.8953 26.5 68.8129 26.5C68.6128 26.5 68.4244 26.5 68.2361 26.5118C68.1066 26.5118 67.9772 26.5236 67.8477 26.5236C67.8359 26.5236 67.8242 26.5236 67.8124 26.5236L68.4362 29.2807L71.2611 41.8645Z" fill="#2F2F2F"/>
<path d="M63.1406 61.3281L52.0059 65.1457C51.9118 64.9454 51.8294 64.7451 51.747 64.5448L39.9531 68.3977C40.0473 68.6569 40.1532 68.9161 40.2474 69.1635C40.2827 69.2342 40.3062 69.3167 40.3415 69.3992C40.3651 69.4581 40.3886 69.5052 40.4122 69.5641L63.223 61.7641C63.1995 61.6109 63.1642 61.4695 63.1406 61.3281Z" fill="#2F2F2F"/>
<path d="M63.4594 62.625L53.2074 67.3852C53.0897 67.1967 52.9838 67.0199 52.8661 66.8314L41.5195 71.9097C41.649 72.1571 41.7784 72.3928 41.9079 72.6285C41.9432 72.6991 41.9903 72.7698 42.0374 72.8523C42.0609 72.8995 42.0962 72.9584 42.1198 73.0055L63.5771 63.0374C63.5418 62.9078 63.4947 62.7664 63.4594 62.625Z" fill="#2F2F2F"/>
<path d="M71.6527 73.3828L71.1583 75.9043C70.9818 75.9279 70.8052 75.9397 70.6287 75.9632L67.9804 88.4881C68.204 88.4999 68.4394 88.4999 68.663 88.4999C68.7101 88.4999 68.7572 88.4999 68.8043 88.4999C68.8396 88.4999 68.8749 88.4999 68.9102 88.4999C68.9691 88.4999 69.0279 88.4999 69.0868 88.4999L72.0176 73.6185C71.9116 73.5478 71.7822 73.4653 71.6527 73.3828Z" fill="#2F2F2F"/>
<path d="M73.1446 75.5382C72.9916 75.5735 72.8268 75.6089 72.6738 75.6442L71.3437 88.393C71.5556 88.3812 71.7675 88.3576 71.9793 88.3341C72.05 88.3223 72.1324 88.3223 72.203 88.3105C72.2736 88.2987 72.3442 88.2987 72.4148 88.2869L73.6743 74.4424C73.533 74.3835 73.4035 74.3128 73.2623 74.2539L73.1446 75.5382Z" fill="#2F2F2F"/>
<path d="M75.394 74.8438C75.3822 74.8556 75.3586 74.8555 75.3469 74.8672C75.2763 74.8908 75.2056 74.9144 75.135 74.9497C75.0879 74.9615 75.0526 74.9851 75.0055 74.9969C74.8761 75.044 74.7466 75.0911 74.6171 75.1265V87.9577C74.7466 87.9341 74.8761 87.9107 75.0055 87.8753C75.1115 87.8989 75.2056 87.9107 75.3116 87.9342C75.3822 87.946 75.4528 87.9578 75.5234 87.9696V87.7574L75.394 74.8438Z" fill="#2F2F2F"/>
<path d="M77.2655 75.763L77.0889 74.0898C77.0771 74.0898 77.0771 74.1016 77.0654 74.1016C76.9948 74.137 76.9359 74.1723 76.8653 74.2077C76.7123 74.2784 76.5593 74.3491 76.4062 74.4198L77.7363 87.1921C77.9482 87.1332 78.16 87.0625 78.3719 86.9918L78.5367 88.4057C78.6073 88.4175 78.6779 88.4175 78.7485 88.4293L78.572 86.9329L77.2655 75.763Z" fill="#2F2F2F"/>
<path d="M78.643 73.207C78.5724 73.2541 78.5135 73.2895 78.4547 73.3248C78.3252 73.4073 78.1958 73.478 78.0663 73.5605L80.7146 86.1089C80.9029 86.0265 81.0912 85.944 81.2796 85.8615L81.8681 88.5008C81.9387 88.5008 82.0093 88.5008 82.08 88.489L81.4679 85.7672L78.643 73.207Z" fill="#2F2F2F"/>
<path d="M80.151 72.3917L80.0804 72.1914C80.0215 72.2385 79.9627 72.2856 79.9038 72.3328C79.7861 72.427 79.6684 72.5095 79.539 72.6038L83.4702 84.787C83.6468 84.6927 83.8233 84.5867 83.9999 84.4924L85.2711 88.251C85.3417 88.2393 85.4123 88.2275 85.483 88.2275L84.1882 84.3981L80.151 72.3917Z" fill="#2F2F2F"/>
<path d="M81.6675 71.7694L81.3732 71.0977C81.3732 71.0977 81.3732 71.0977 81.3614 71.1095C81.3026 71.1567 81.2555 71.2156 81.1966 71.2627C81.0907 71.357 80.9848 71.463 80.8671 71.5573L86.0342 83.2338C86.199 83.116 86.3638 83.0099 86.5286 82.8921L88.6826 87.5934C88.7532 87.5698 88.8238 87.558 88.8944 87.5462L86.7052 82.7625L81.6675 71.7694Z" fill="#2F2F2F"/>
<path d="M82.49 69.9531L82.4783 69.9649C82.4312 70.012 82.3841 70.0592 82.337 70.1181C82.2546 70.2123 82.1605 70.3066 82.0663 70.4009L88.3987 81.4411C88.54 81.3233 88.6812 81.2055 88.8225 81.0759L92.0475 86.5194C92.1181 86.4959 92.177 86.4723 92.2476 86.437L88.9872 80.9227L82.49 69.9531Z" fill="#2F2F2F"/>
<path d="M83.482 68.7383C83.482 68.7501 83.482 68.7501 83.482 68.7383C83.4349 68.809 83.3878 68.8561 83.3525 68.915C83.2701 69.0211 83.1995 69.1153 83.1171 69.2096L90.5324 79.484C90.6618 79.3544 90.7913 79.2248 90.9208 79.0952L95.3347 85.0454C95.3935 85.0101 95.4641 84.9747 95.523 84.9511L91.062 78.942L83.482 68.7383Z" fill="#2F2F2F"/>
<path d="M84.353 67.5039C84.3412 67.5157 84.3412 67.5157 84.353 67.5039C84.3059 67.5746 84.2706 67.6335 84.2353 67.6924C84.1647 67.7985 84.094 67.9045 84.0234 68.0106L92.4392 77.4131C92.5569 77.2717 92.6746 77.1303 92.7805 76.9889L98.4656 83.1748C98.5245 83.1394 98.5833 83.0923 98.6422 83.0569L92.91 76.824L84.353 67.5039Z" fill="#2F2F2F"/>
<path d="M85.0793 66.2422C85.0793 66.254 85.0793 66.254 85.0793 66.2422C85.0439 66.3129 85.0086 66.3718 84.9733 66.4307C84.9145 66.5367 84.8556 66.6428 84.7968 66.7488L94.1189 75.1852C94.2248 75.0438 94.3189 74.8906 94.4249 74.7374L101.404 80.8879C101.463 80.8408 101.51 80.7937 101.569 80.7466L94.5544 74.5607L85.0793 66.2422Z" fill="#2F2F2F"/>
<path d="M85.7277 64.9963L85.7042 64.9727C85.6807 65.0434 85.6453 65.1023 85.61 65.173C85.563 65.2791 85.5041 65.3969 85.457 65.5029L95.5677 72.8906C95.6501 72.7374 95.7443 72.5843 95.8267 72.4311L104.054 78.2753C104.101 78.2163 104.148 78.1692 104.195 78.1103L95.9208 72.2308L85.7277 64.9963Z" fill="#2F2F2F"/>
<path d="M86.4472 63.825L86.2 63.6836C86.1764 63.7543 86.1529 63.825 86.1294 63.8839C86.0823 64.0017 86.047 64.1078 85.9999 64.2138L96.7933 70.4822C96.8639 70.3172 96.9345 70.164 97.0051 69.9991L106.409 75.2895C106.445 75.2306 106.492 75.1716 106.527 75.1127L97.0875 69.7988L86.4472 63.825Z" fill="#2F2F2F"/>
<path d="M87.0455 62.5909L86.61 62.3906C86.61 62.3906 86.61 62.3906 86.61 62.4024C86.5865 62.473 86.5747 62.5437 86.5512 62.6144C86.5159 62.7323 86.4806 62.8383 86.457 62.9561L97.8154 68.0462C97.8742 67.8813 97.9331 67.7163 97.9919 67.5513L108.42 72.0523C108.455 71.9934 108.491 71.9227 108.526 71.8638L98.0626 67.351L87.0455 62.5909Z" fill="#2F2F2F"/>
<path d="M87.5069 61.2941L86.9067 61.0938V61.1054C86.8949 61.1761 86.8831 61.2469 86.8596 61.3176C86.836 61.4354 86.8125 61.5415 86.789 61.6593L98.5828 65.5121C98.6299 65.3472 98.6652 65.1823 98.7123 65.0056L109.988 68.5168C110.011 68.4461 110.035 68.3871 110.058 68.3164L98.7594 64.7935L87.5069 61.2941Z" fill="#2F2F2F"/>
<path d="M87.8237 59.9501L87.1057 59.7969V59.8087C87.0939 59.8794 87.0822 59.9501 87.0822 60.0208C87.0704 60.1386 87.0469 60.2564 87.0351 60.3625L99.1468 62.9547C99.1821 62.7897 99.2056 62.613 99.2291 62.448L111.129 64.8281C111.14 64.7574 111.164 64.6867 111.176 64.616L99.2645 62.2359L87.8237 59.9501Z" fill="#2F2F2F"/>
<path d="M88.0114 58.5942L87.2345 58.5117V58.5235C87.2345 58.5942 87.2227 58.6649 87.2227 58.7356C87.211 58.8534 87.211 58.9712 87.1992 59.0773L99.4992 60.3734C99.511 60.2084 99.5227 60.0317 99.5463 59.8549L111.81 60.9861C111.822 60.9154 111.822 60.8447 111.834 60.774L99.558 59.6546L88.0114 58.5942Z" fill="#2F2F2F"/>
<path d="M88.0582 57.2166H87.2578V57.2284C87.2578 57.2991 87.2578 57.3698 87.2578 57.4404V57.4994C87.2578 57.5936 87.2578 57.6879 87.2578 57.7821H99.6283C99.6283 57.6879 99.6283 57.5936 99.6283 57.4994C99.6283 57.4169 99.6283 57.3462 99.6283 57.2755L111.999 57.1105C111.999 57.0398 111.999 56.9691 111.999 56.8984L99.6283 57.0634L88.0582 57.2166Z" fill="#2F2F2F"/>
<path d="M87.9525 55.8513L87.1874 55.9337V55.9455C87.1992 56.0162 87.1992 56.0869 87.1992 56.1576C87.2109 56.2754 87.2109 56.3933 87.2227 56.4993L99.4756 55.2032C99.4521 55.0383 99.4285 54.8615 99.405 54.6966L111.693 53.2238C111.681 53.1531 111.669 53.0824 111.657 53.0117L99.3697 54.4845L87.9525 55.8513Z" fill="#2F2F2F"/>
<path d="M87.706 54.4935L87.0351 54.6349V54.6467C87.0469 54.7174 87.0586 54.7881 87.0704 54.8588C87.0822 54.9766 87.1057 55.0827 87.1175 55.2005L98.9937 52.6555C98.9467 52.4905 98.8996 52.3256 98.8525 52.1606L110.94 49.4035C110.917 49.3328 110.905 49.2621 110.881 49.1914L98.7936 51.9485L87.706 54.4935Z" fill="#2F2F2F"/>
<path d="M87.3304 53.1742L86.789 53.3509C86.789 53.3509 86.789 53.3509 86.789 53.3627C86.8007 53.4334 86.8243 53.5041 86.836 53.5748C86.8596 53.6926 86.8831 53.7986 86.9067 53.9165L98.1591 50.2403C98.0885 50.0871 98.0178 49.9222 97.9472 49.769L109.705 45.7511C109.682 45.6804 109.646 45.6215 109.623 45.5508L97.8648 49.5687L87.3304 53.1742Z" fill="#2F2F2F"/>
<path d="M86.8102 51.9008L86.4453 52.0658C86.4688 52.1365 86.4924 52.2072 86.5042 52.2779C86.5395 52.3957 86.5748 52.5017 86.5983 52.6196L96.9914 47.9654C96.909 47.824 96.8149 47.6709 96.7207 47.5295L108.02 42.2862C107.984 42.2273 107.949 42.1566 107.914 42.0977L96.6031 47.3527L86.8102 51.9008Z" fill="#2F2F2F"/>
<path d="M85.9999 50.7478L86.2235 51.3605C86.2235 51.3605 86.2588 51.3487 86.3177 51.3134L95.5927 45.9169C95.475 45.7755 95.3691 45.6342 95.2514 45.4928L95.0983 45.587C95.1925 45.5281 95.2514 45.4928 95.2514 45.4928L105.974 39.0712C105.927 39.0123 105.891 38.9534 105.844 38.8945L95.1101 45.3278L85.9999 50.7478Z" fill="#2F2F2F"/>
<path d="M87.4932 47.9788L85.4453 49.4752C85.4453 49.487 85.4571 49.4988 85.4571 49.5106C85.4924 49.5813 85.5158 49.6402 85.5511 49.7109C85.61 49.8287 85.6572 49.9583 85.716 50.0761L93.9081 44.0788C93.7786 43.9492 93.6491 43.8314 93.5079 43.7135L103.536 36.1727C103.489 36.1256 103.442 36.0666 103.383 36.0195L93.3431 43.5721L87.4932 47.9788Z" fill="#2F2F2F"/>
<path d="M84.7734 48.201C84.8205 48.2835 84.8676 48.3659 84.9147 48.4602C84.9735 48.5662 85.0324 48.6723 85.0912 48.7901L92.0357 42.4982C91.9062 42.404 91.765 42.3097 91.6355 42.2154L100.851 33.6377C100.769 33.567 100.698 33.5081 100.628 33.4492L91.3883 42.0505L84.7734 48.201Z" fill="#2F2F2F"/>
<path d="M83.9882 46.9639C83.9999 46.9639 83.9999 46.9639 83.9882 46.9639C84.047 47.0464 84.1059 47.1288 84.153 47.2113C84.2236 47.3174 84.2942 47.4234 84.3531 47.5294L90.0028 41.214C89.8616 41.1315 89.7085 41.0608 89.5673 40.9783L97.8654 31.4462C97.783 31.3991 97.7006 31.3402 97.6182 31.293L89.2966 40.8487L83.9882 46.9639Z" fill="#2F2F2F"/>
<path d="M83.082 45.7403L83.0938 45.7521C83.1526 45.8228 83.2115 45.8935 83.2703 45.9642C83.3527 46.0702 83.4234 46.1645 83.5058 46.2705L87.8843 40.2025C87.7313 40.1436 87.5783 40.0846 87.4253 40.0257L94.7229 29.6335C94.6405 29.5864 94.5463 29.551 94.4639 29.5039L87.1545 39.9197L83.082 45.7403Z" fill="#2F2F2F"/>
<path d="M82.5256 43.6779L82.0195 44.5616L82.0313 44.5734C82.1019 44.6441 82.1725 44.7148 82.2314 44.7855C82.3255 44.8915 82.4315 44.9976 82.5256 45.1036L85.7272 39.5187C85.5624 39.4715 85.3976 39.4362 85.221 39.4008L91.4122 28.2545C91.3181 28.2191 91.2357 28.1956 91.1415 28.1602L84.9268 39.3301L82.5256 43.6779Z" fill="#2F2F2F"/>
<path d="M81.0556 42.9486L80.8437 43.4317C80.8437 43.4317 80.8437 43.4317 80.8555 43.4317C80.9261 43.5024 81.0085 43.5613 81.0791 43.632C81.185 43.7262 81.291 43.8323 81.4087 43.9265L83.5509 39.0839C83.3861 39.0603 83.2095 39.0485 83.0448 39.025L88.0589 27.2542C87.9647 27.2306 87.8706 27.207 87.7764 27.1953L82.727 39.0132L81.0556 42.9486Z" fill="#2F2F2F"/>
<path d="M79.4804 42.3585C79.4921 42.3703 79.5039 42.3703 79.5157 42.3821C79.6098 42.4528 79.6922 42.5117 79.7864 42.5824C79.8923 42.6648 80.01 42.7473 80.116 42.8298L81.3754 38.9415C81.3165 38.9415 81.2577 38.9415 81.1988 38.9415C81.1047 38.9415 81.0105 38.9415 80.9163 38.9415L84.6946 26.6876C84.5769 26.6759 84.4592 26.6641 84.3297 26.6523L80.5397 38.9533L79.4804 42.3585Z" fill="#2F2F2F"/>
<path d="M78.3138 41.6053C78.4315 41.676 78.5492 41.7467 78.6669 41.8292L79.2554 39.0602C79.1024 39.072 78.9494 39.0956 78.8081 39.1074L81.2917 26.5C81.2563 26.5 81.221 26.5 81.1857 26.5C81.1033 26.5 81.0209 26.5 80.9386 26.5L78.4433 39.1545L77.996 41.405C78.0078 41.4168 78.0195 41.4168 78.0313 41.4285C78.1255 41.4875 78.2196 41.5464 78.3138 41.6053Z" fill="#2F2F2F"/>
</g>
</g>
<defs>
<clipPath id="clip0_1_8200">
<rect width="150" height="115" fill="white"/>
</clipPath>
<clipPath id="clip1_1_8200">
<rect width="150" height="115" fill="white"/>
</clipPath>
</defs>
</svg>
