<svg width="150" height="115" viewBox="0 0 150 115" fill="none" xmlns="http://www.w3.org/2000/svg">
<g clip-path="url(#clip0_1_8195)">
<g clip-path="url(#clip1_1_8195)">
<path d="M21.002 74.6134H40.5847V77.3903H21.002V74.6134ZM21.002 72.0889H40.5847V69.312H21.002V72.0889ZM26.597 66.7875H34.9896V64.0106H26.597V66.7875ZM26.597 61.4862H34.9896V58.7093H26.597V61.4862ZM26.597 56.1848H34.9896V53.4079H26.597V56.1848ZM34.9896 48.1066H26.597V50.8835H34.9896V48.1066ZM21.002 45.5821H40.5847V42.8052H21.002V45.5821ZM21.002 40.2808H40.5847V37.5039H21.002V40.2808ZM43.3822 72.0889H73.2319C73.7329 71.2306 74.1144 70.2991 74.3585 69.312H43.3822V72.0889ZM70.8946 58.7093H48.9773V61.4862H73.2294C72.6138 60.4335 71.8229 59.4944 70.8946 58.7093ZM48.9773 53.4079V56.1848H70.8946C71.8229 55.3997 72.6138 54.4606 73.2294 53.4079H48.9773ZM73.2319 42.8052H43.3822V45.5821H74.356C74.1144 44.5951 73.7304 43.6635 73.2319 42.8052ZM63.9822 37.5039H43.3822V40.2808H71.1872C69.2874 38.5566 66.7593 37.5039 63.9822 37.5039ZM48.9773 50.8835H57.3699V48.1066H48.9773V50.8835ZM65.2537 50.8835H74.2899C74.5315 49.9974 74.6637 49.0684 74.6637 48.1066H65.2537V50.8835ZM48.9773 66.7875H57.3699V64.0106H48.9773V66.7875ZM65.2537 64.0106V66.7875H74.6637C74.6637 65.8257 74.5315 64.8967 74.2899 64.0106H65.2537ZM43.3822 77.3903H63.9822C66.7798 77.3903 69.2874 76.3376 71.1872 74.6134H43.3822V77.3903ZM99.3278 77.3903L100.305 74.6134H98.3587L99.3278 77.3903ZM97.4687 72.0889H101.2L102.182 69.312H96.4845L97.4687 72.0889ZM95.5918 66.7875H103.072L104.053 64.0106H94.6076L95.5918 66.7875ZM93.7175 61.4862H104.949L105.93 58.7093H92.7357L93.7175 61.4862ZM82.5476 50.8835H97.662L96.6879 48.1066H82.5476V50.8835ZM102.861 45.5821H121.713V42.8052H103.835L102.861 45.5821ZM105.691 37.5039L104.72 40.2808H121.713V37.5039H105.691ZM76.9525 77.3903H90.9402V74.6134H76.9525V77.3903ZM76.9525 72.0889H90.9402V69.312H76.9525V72.0889ZM82.5476 66.7875H90.9402V64.0106H82.5476V66.7875ZM82.5476 61.4862H90.9402V58.7093H82.5476V61.4862ZM116.118 48.1066H101.976L101.002 50.8835H116.118V48.1066ZM107.726 56.1848H116.118V53.4079H100.119L99.3329 55.6522L98.547 53.4079H82.5476V56.1848H90.9402V53.6326L91.843 56.1848H106.823L107.726 53.6326V56.1848ZM116.118 58.7093H107.726V61.4862H116.118V58.7093ZM107.726 66.7875H116.118V64.0106H107.726V66.7875ZM107.726 72.0889H121.713V69.312H107.726V72.0889ZM107.726 77.3903H121.713V74.6134H107.726V77.3903ZM95.8054 45.5821L94.8314 42.8052H76.9525V45.5821H95.8054ZM93.9489 40.2808L92.9747 37.5039H76.9525V40.2808H93.9489ZM124.727 75.3177C124.727 74.0782 125.678 73.134 126.863 73.134C128.049 73.134 129 74.0782 129 75.3177C129 76.5597 128.049 77.5013 126.863 77.5013C125.678 77.5039 124.727 76.5597 124.727 75.3177ZM128.499 75.4565V75.1814C128.499 74.2902 127.794 73.5909 126.863 73.5909C125.933 73.5909 125.228 74.2902 125.228 75.1814V75.4565C125.228 76.3477 125.933 77.0469 126.863 77.0469C127.794 77.0469 128.499 76.3477 128.499 75.4565ZM126.543 76.4436H125.999V74.2271H127.013C127.514 74.2271 127.771 74.525 127.771 74.9264C127.771 75.2773 127.611 75.4994 127.364 75.5954L127.865 76.4436H127.268L126.851 75.6812H126.54V76.4436H126.543ZM126.95 75.2773C127.12 75.2773 127.217 75.2041 127.217 75.045V74.886C127.217 74.727 127.12 74.6537 126.95 74.6537H126.543V75.2798H126.95V75.2773Z" fill="#2F2F2F"/>
</g>
</g>
<defs>
<clipPath id="clip0_1_8195">
<rect width="150" height="115" fill="white"/>
</clipPath>
<clipPath id="clip1_1_8195">
<rect width="150" height="115" fill="white"/>
</clipPath>
</defs>
</svg>
