<svg width="150" height="115" viewBox="0 0 150 115" fill="none" xmlns="http://www.w3.org/2000/svg">
<g clip-path="url(#clip0_1_8188)">
<g clip-path="url(#clip1_1_8188)">
<g clip-path="url(#clip2_1_8188)">
<path d="M86.9074 31.5977H91.0088C90.9328 35.3434 89.5651 39.0718 86.9074 42.0346V31.5977ZM75.3542 43.2138H85.7346C82.7877 45.8882 79.0816 47.2614 75.3542 47.3407V43.2138ZM74.6838 43.2138V47.3407C70.9579 47.2614 67.2527 45.8882 64.3049 43.2138H74.6838ZM63.133 31.5977V42.0346C60.5482 39.1558 59.0996 35.4908 59.0236 31.5977H63.133ZM63.133 30.9257H59.0236C59.0996 27.0293 60.5482 23.3636 63.133 20.4879V30.9257ZM74.6838 19.3072H64.3049C67.2527 16.6328 70.9579 15.2587 74.6838 15.1819V19.3072ZM75.3542 19.3072V15.1819C79.0816 15.2587 82.7869 16.6328 85.7338 19.3072H75.3542ZM86.9074 20.4879C89.5651 23.4508 90.9328 27.1751 91.0088 30.9257H86.9074V20.4879ZM75.8272 30.9257L86.2378 20.4562V30.9257H75.8272ZM75.8256 31.5977H86.2378V42.0671L75.8256 31.5977ZM75.3542 32.0755L85.7632 42.5402H75.3542V32.0755ZM74.6838 32.0739V42.5402H64.2764L74.6838 32.0739ZM74.2107 31.5977L63.8025 42.0647V31.5977H74.2107ZM74.2084 30.9257H63.8025V20.4586L74.2084 30.9257ZM75.3542 19.9808H85.7639L75.3542 30.4502V19.9808ZM74.6838 30.4518L64.2732 19.9808H74.6838V30.4518ZM86.8075 19.407C80.3099 12.8696 69.7297 12.8696 63.2312 19.407C60.0846 22.572 58.3477 26.7821 58.3477 31.2585C58.3477 35.7373 60.0846 39.9466 63.2312 43.1147C66.4824 46.3819 70.7479 48.0174 75.0198 48.0174C79.2892 48.0174 83.5595 46.3803 86.8075 43.1147C93.3076 36.5788 93.3076 25.9429 86.8075 19.407Z" fill="#2F2F2F"/>
<path d="M86.562 43.9474C86.3171 43.9474 86.035 43.8531 85.7466 43.5638L64.5221 22.2231L64.5213 42.8095V42.8285L64.5198 42.8752C64.4873 43.6566 63.8739 43.9426 63.4587 43.9426C62.87 43.9426 62.3945 43.4648 62.3945 42.8752V19.643C62.3945 19.0598 62.8605 18.5867 63.4373 18.574C63.7226 18.5693 64.0015 18.6786 64.2107 18.8871C64.4017 19.0788 80.0904 34.8567 85.501 40.2943V20.0931C82.6578 17.387 78.9494 15.9004 75.0127 15.9004C74.424 15.9004 73.9485 15.4226 73.9485 14.8307C73.9485 14.2419 74.424 13.7617 75.0127 13.7617C79.6641 13.7617 84.0318 15.5827 87.3156 18.8871C87.5145 19.0875 87.627 19.3601 87.627 19.643V42.8752C87.627 43.3071 87.3686 43.697 86.9717 43.8602C86.856 43.9109 86.7165 43.9474 86.562 43.9474Z" fill="#2F2F2F"/>
<path d="M113.096 96.4051L111.34 98.5636V100.701C111.34 100.899 111.18 101.059 110.985 101.059C110.79 101.059 110.63 100.899 110.63 100.701V98.5636L108.867 96.398C108.744 96.2466 108.765 96.02 108.917 95.8956C109.067 95.7719 109.29 95.7941 109.415 95.9463L110.985 97.875L112.556 95.9463C112.593 95.9003 112.642 95.8623 112.698 95.8417C112.878 95.7696 113.084 95.8567 113.158 96.039C113.21 96.1666 113.179 96.31 113.096 96.4051ZM73.5198 98.0819H76.4984V96.9186C76.0864 96.5509 75.5642 96.3472 75.0071 96.3472C74.4517 96.3472 73.9295 96.5509 73.5198 96.9186V98.0819ZM73.164 101.059C72.9675 101.059 72.8098 100.899 72.8098 100.704V98.5153C72.8035 98.4907 72.8003 98.4646 72.8003 98.4361C72.8003 98.4091 72.8035 98.3846 72.8098 98.3584V96.7672C72.8098 96.6721 72.8455 96.5826 72.9112 96.516C73.4699 95.9494 74.2147 95.6364 75.0071 95.6364C75.8011 95.6364 76.546 95.9494 77.103 96.516C77.1688 96.5826 77.2076 96.6721 77.2076 96.7672V98.4361C77.2076 98.6342 77.0484 98.7927 76.8526 98.7927H73.5198V100.704C73.5198 100.899 73.3605 101.059 73.164 101.059ZM49.5195 99.9528C49.9316 100.323 50.4546 100.522 51.0108 100.522C51.5655 100.522 52.0885 100.323 52.5006 99.9528V96.9186C52.0885 96.5509 51.5655 96.3472 51.0108 96.3472C50.4546 96.3472 49.9316 96.5509 49.5195 96.9186V99.9528ZM51.0108 101.235C50.2161 101.235 49.4728 100.924 48.9157 100.357C48.8492 100.292 48.8127 100.2 48.8127 100.108V96.7672C48.8127 96.6721 48.8492 96.5826 48.9157 96.516C49.4728 95.9494 50.2161 95.6364 51.0108 95.6364C51.804 95.6364 52.5465 95.9494 53.1044 96.516C53.1725 96.5826 53.209 96.6721 53.209 96.7672V100.108C53.209 100.2 53.1725 100.292 53.1044 100.357C52.5465 100.924 51.804 101.235 51.0108 101.235ZM61.1607 101.059C60.965 101.059 60.8073 100.899 60.8073 100.704V96.1689C60.8073 96.02 60.9024 95.8861 61.0426 95.8353C61.1829 95.7838 61.3422 95.8298 61.4365 95.9463L62.9967 97.875L64.5752 95.9439C64.6703 95.8298 64.8279 95.7846 64.969 95.8353C65.1092 95.8876 65.2027 96.02 65.2027 96.1689V100.704C65.2027 100.899 65.0451 101.059 64.8493 101.059C64.6536 101.059 64.4959 100.899 64.4959 100.704V97.1642L63.2709 98.6635C63.2043 98.7443 63.1021 98.7927 62.9959 98.7927C62.8905 98.7927 62.7899 98.7443 62.7209 98.6611L61.5149 97.1698V100.704C61.5149 100.899 61.3548 101.059 61.1607 101.059ZM101.114 100.926C101.11 100.927 101.108 100.928 101.108 100.93C101.094 100.945 101.079 100.963 101.06 100.979C101.042 100.99 101.027 101 101.011 101.01C101.01 101.012 101.008 101.012 101.007 101.014C100.99 101.022 100.974 101.031 100.958 101.036C100.956 101.038 100.951 101.038 100.949 101.04C100.932 101.046 100.916 101.049 100.899 101.053L100.889 101.054C100.87 101.058 100.853 101.059 100.838 101.059H100.835C100.824 101.059 100.809 101.059 100.799 101.058C100.794 101.058 100.793 101.056 100.792 101.056C100.78 101.054 100.771 101.053 100.76 101.052C100.755 101.052 100.754 101.048 100.75 101.048C100.743 101.046 100.735 101.043 100.725 101.041C100.721 101.04 100.718 101.038 100.713 101.036C100.708 101.032 100.698 101.031 100.691 101.027C100.686 101.025 100.683 101.022 100.677 101.021C100.673 101.019 100.666 101.014 100.657 101.01C100.654 101.008 100.65 101.006 100.646 101.002C100.637 100.998 100.633 100.995 100.628 100.99C100.624 100.988 100.619 100.985 100.615 100.98C100.608 100.975 100.603 100.971 100.597 100.965C100.595 100.963 100.592 100.959 100.587 100.956C100.576 100.947 100.568 100.939 100.561 100.93L97.501 97.1674V100.704C97.501 100.899 97.3441 101.059 97.1476 101.059C96.9511 101.059 96.7934 100.899 96.7934 100.704V96.1689C96.7934 96.1579 96.7942 96.1476 96.7958 96.1357C96.7966 96.1135 96.8005 96.0897 96.8093 96.0707V96.0675C96.8156 96.0453 96.8235 96.0271 96.833 96.0073C96.8338 96.0065 96.8338 96.0049 96.8354 96.0041C96.8457 95.9827 96.8576 95.9653 96.8719 95.9494C96.8742 95.9487 96.8742 95.9463 96.875 95.9463C96.8877 95.9265 96.9043 95.9106 96.9234 95.8956C96.9408 95.8813 96.9614 95.867 96.9804 95.8559C96.9812 95.8559 96.9844 95.8559 96.9852 95.8544C97.005 95.8441 97.0248 95.8353 97.047 95.8306C97.0486 95.8298 97.0494 95.8298 97.0509 95.8298C97.0715 95.8227 97.0906 95.8187 97.1135 95.8179C97.1135 95.8155 97.1159 95.8179 97.1175 95.8155C97.1278 95.8155 97.1357 95.8132 97.1476 95.8132C97.1817 95.8132 97.2158 95.8203 97.2483 95.8298C97.2483 95.8306 97.2506 95.8306 97.2506 95.8306C97.2704 95.8353 97.2918 95.8441 97.3093 95.8544C97.3101 95.8559 97.3124 95.8559 97.314 95.8567C97.333 95.867 97.3505 95.8781 97.3663 95.8932C97.3703 95.8948 97.3711 95.8956 97.3727 95.8956C97.3877 95.9098 97.4067 95.9265 97.4218 95.9463L100.482 99.7047V96.1689C100.482 95.9732 100.64 95.8155 100.835 95.8155C101.03 95.8155 101.189 95.9732 101.189 96.1689V100.704C101.189 100.714 101.189 100.725 101.187 100.739C101.185 100.762 101.182 100.781 101.175 100.804V100.807C101.167 100.826 101.159 100.846 101.15 100.867C101.149 100.867 101.149 100.869 101.148 100.871C101.136 100.89 101.127 100.906 101.114 100.926ZM39.0171 101.235C38.2223 101.235 37.4774 100.924 36.9211 100.357C36.8554 100.289 36.8173 100.197 36.8173 100.107V96.7672C36.8173 96.6721 36.8554 96.5826 36.9211 96.5144C37.4774 95.9494 38.2223 95.6356 39.0171 95.6356C39.8102 95.6356 40.5535 95.9494 41.113 96.5144C41.2492 96.6555 41.2469 96.8797 41.1114 97.0192C40.9703 97.1563 40.7461 97.1563 40.6106 97.0168C40.1835 96.585 39.6185 96.3472 39.0171 96.3472C38.4608 96.3472 37.9362 96.5501 37.5257 96.9186V99.9528C37.9362 100.323 38.4608 100.522 39.0171 100.522C39.6185 100.522 40.1835 100.287 40.6106 99.8577C40.7461 99.7142 40.9703 99.7142 41.1114 99.8529C41.2469 99.9916 41.2492 100.218 41.113 100.357C40.5535 100.924 39.8102 101.235 39.0171 101.235ZM85.512 98.4337V96.9146C85.9225 96.5485 86.4454 96.3465 86.9977 96.3465C87.554 96.3465 88.077 96.5485 88.489 96.9146V98.4337H85.512ZM86.9977 95.6364C86.2101 95.6364 85.4652 95.9487 84.9082 96.5073C84.8432 96.5747 84.8036 96.6666 84.8036 96.7593V100.701C84.8036 100.896 84.9629 101.058 85.1586 101.058C85.3535 101.058 85.512 100.896 85.512 100.701V99.1445H88.489V100.701C88.489 100.896 88.6467 101.058 88.8409 101.058C89.0374 101.058 89.1935 100.896 89.1935 100.701V96.7593C89.1935 96.6666 89.157 96.5747 89.0936 96.5073C88.5334 95.9487 87.7901 95.6364 86.9977 95.6364ZM62.5371 57.2936C62.4 57.4314 62.4 57.6573 62.5371 57.7952C62.675 57.9354 62.9008 57.9354 63.0379 57.7952C63.3874 57.4441 63.8232 57.2341 64.2772 57.162V61.4886C64.2772 61.686 64.4349 61.8436 64.6306 61.8436C64.8256 61.8436 64.9825 61.686 64.9825 61.4886V57.162C65.4389 57.2341 65.8755 57.4441 66.2234 57.7952C66.2923 57.8673 66.385 57.899 66.4722 57.899C66.5641 57.899 66.6536 57.8673 66.7218 57.7952C66.8612 57.6573 66.8612 57.4314 66.7218 57.2936C65.5688 56.1327 63.6932 56.1327 62.5371 57.2936ZM76.7465 56.5994C76.5507 56.5994 76.393 56.7587 76.393 56.9552V58.8649H73.4184V56.9552C73.4184 56.7587 73.2591 56.5994 73.0634 56.5994C72.8669 56.5994 72.71 56.7587 72.71 56.9552V61.4886C72.71 61.686 72.8669 61.8436 73.0634 61.8436C73.2591 61.8436 73.4184 61.686 73.4184 61.4886V59.5765H76.393V61.4886C76.393 61.686 76.5507 61.8436 76.7465 61.8436C76.943 61.8436 77.1007 61.686 77.1007 61.4886V56.9552C77.1007 56.7587 76.943 56.5994 76.7465 56.5994ZM87.4613 60.6407C87.5992 60.777 87.5992 61.0021 87.4629 61.1431C86.9058 61.7066 86.161 62.0196 85.3678 62.0196C84.5746 62.0196 83.8297 61.7066 83.2703 61.1431C83.2077 61.0758 83.1697 60.9855 83.1697 60.8927V59.2992C83.1633 59.273 83.1609 59.2485 83.1609 59.2199C83.1609 59.1954 83.1633 59.1684 83.1697 59.1439V57.5495C83.1697 57.4576 83.2077 57.3665 83.2703 57.2999C83.8297 56.7341 84.5746 56.4219 85.3678 56.4219C86.161 56.4219 86.9058 56.7341 87.4629 57.2999C87.5992 57.4402 87.5992 57.6644 87.4613 57.8039C87.3234 57.941 87.0984 57.941 86.9621 57.8023C86.5358 57.3704 85.9708 57.1351 85.3678 57.1351C84.8131 57.1351 84.2901 57.3348 83.8789 57.7048V58.8649H86.5033C86.6982 58.8649 86.8583 59.0234 86.8583 59.2199C86.8583 59.418 86.6982 59.5765 86.5033 59.5765H83.8789V60.7398C84.2901 61.1075 84.8131 61.3088 85.3678 61.3088C85.9708 61.3088 86.5358 61.071 86.9621 60.6415C87.0984 60.5021 87.3234 60.4997 87.4613 60.6407ZM149.689 86.3833C150.104 85.9657 150.104 85.2914 149.689 84.8738L144.459 79.6113L149.498 74.543C149.913 74.1262 149.913 73.4494 149.499 73.031C147.832 71.3495 145.608 70.4232 143.232 70.42H143.23H143.223H143.22C140.834 70.4232 138.603 71.3567 136.936 73.0485C136.728 73.2577 136.619 73.5414 136.626 73.8314V85.6432C136.626 86.232 137.101 86.6971 137.689 86.6971C138.278 86.6971 138.753 86.2193 138.753 85.6282V74.2593C139.982 73.1594 141.553 72.5588 143.227 72.5588C144.673 72.5588 146.045 73.0096 147.186 73.8457L142.202 78.8585C141.787 79.2745 141.787 79.9528 142.202 80.3673L148.186 86.3833C148.395 86.5933 148.668 86.6971 148.937 86.6971C149.21 86.6971 149.481 86.5933 149.689 86.3833ZM32.2143 78.8229V74.2498C30.9789 73.1507 29.4044 72.5508 27.742 72.5508C26.0771 72.5508 24.505 73.1507 23.2689 74.2498V78.8229H32.2143ZM34.0241 73.0342C34.223 73.2347 34.3347 73.5065 34.3347 73.7886V85.6329C34.3347 86.2217 33.8593 86.7003 33.2745 86.7003C32.6889 86.7003 32.2143 86.2217 32.2143 85.6329V80.9576H23.2689V85.6329C23.2689 86.2217 22.7934 86.7003 22.2094 86.7003C21.6215 86.7003 21.1476 86.2217 21.1476 85.6329V73.7886C21.1476 73.5065 21.2593 73.2347 21.459 73.0342C23.1357 71.3471 25.3679 70.4184 27.742 70.4184C30.1144 70.4184 32.345 71.3471 34.0241 73.0342ZM57.602 70.9565C57.0141 70.9565 56.5402 71.4327 56.5402 72.0215V85.6329C56.5402 86.2217 57.0141 86.7003 57.602 86.7003C58.1884 86.7003 58.6623 86.2217 58.6623 85.6329V72.0215C58.6623 71.4327 58.1884 70.9565 57.602 70.9565ZM76.2163 74.5406C76.6316 74.955 77.3035 74.955 77.7156 74.5406C78.1308 74.123 78.1308 73.4463 77.7156 73.031C74.2528 69.5491 68.6164 69.5491 65.1512 73.031C64.9516 73.2323 64.8398 73.5002 64.8398 73.7854V83.8626C64.8398 84.1455 64.9516 84.4158 65.1512 84.617C66.8834 86.3588 69.1584 87.2312 71.4334 87.2312C73.7092 87.2312 75.9842 86.3588 77.7156 84.617C77.9168 84.4158 78.0278 84.1305 78.0278 83.8492V78.8688C78.0278 78.2785 77.5523 77.8014 76.9652 77.8014H71.4318C70.8478 77.8014 70.3716 78.2785 70.3716 78.8688C70.3716 79.456 70.8478 79.933 71.4318 79.933H75.9065V83.403C73.3597 85.6614 69.5094 85.6614 66.9603 83.4015V74.2474C69.6156 71.8908 73.6814 71.9906 76.2163 74.5406ZM100.85 73.031C100.435 73.4479 100.435 74.123 100.85 74.5422C101.263 74.955 101.935 74.955 102.35 74.5422C103.4 73.4851 104.711 72.8512 106.075 72.6356V85.6329C106.075 86.2217 106.551 86.7003 107.137 86.7003C107.721 86.7003 108.196 86.2217 108.196 85.6329V72.6364C109.56 72.8512 110.87 73.4851 111.919 74.5422C112.126 74.749 112.397 74.8536 112.669 74.8536C112.939 74.8536 113.212 74.749 113.418 74.5422C113.833 74.123 113.833 73.4479 113.42 73.031C109.955 69.5452 104.316 69.5452 100.85 73.031ZM128.715 74.2498C127.479 73.1507 125.905 72.5508 124.242 72.5508C122.579 72.5508 121.006 73.1507 119.771 74.2498V83.4015C121.006 84.4998 122.579 85.0988 124.242 85.0988C125.905 85.0988 127.479 84.5005 128.715 83.4015V74.2498ZM130.524 73.0342C130.726 73.2347 130.834 73.5065 130.834 73.7886V83.8428C130.835 84.1281 130.726 84.4118 130.524 84.6162C128.847 86.3025 126.615 87.232 124.242 87.232C121.869 87.232 119.636 86.3025 117.96 84.6154C117.761 84.415 117.649 84.1432 117.649 83.8619V73.7886C117.649 73.5065 117.761 73.2347 117.96 73.0342C119.636 71.3471 121.869 70.4184 124.242 70.4184C126.615 70.4184 128.847 71.3471 130.524 73.0342ZM94.5065 78.8229V74.2498C93.268 73.1507 91.6967 72.5508 90.0326 72.5508C88.367 72.5508 86.7981 73.1507 85.5619 74.2498V78.8229H94.5065ZM96.3148 73.0342C96.5169 73.2347 96.6254 73.5065 96.6254 73.7886V85.6329C96.6254 86.2217 96.1516 86.7003 95.5644 86.7003C94.982 86.7003 94.5065 86.2217 94.5065 85.6329V80.9576H85.5619V85.6329C85.5619 86.2217 85.0857 86.7003 84.5009 86.7003C83.9145 86.7003 83.4407 86.2217 83.4407 85.6329V73.7886C83.4407 73.5065 83.5524 73.2347 83.7505 73.0342C85.4288 71.3471 87.6578 70.4184 90.0326 70.4184C92.4083 70.4184 94.6389 71.3471 96.3148 73.0342ZM49.6812 86.6298C50.0901 86.4721 50.3634 86.0727 50.3634 85.6321V72.0239C50.3634 71.4343 49.8888 70.9541 49.3 70.9541C48.7121 70.9541 48.2359 71.4343 48.2359 72.0239V82.8523L38.9854 71.3083C38.5915 70.8717 37.9188 70.8376 37.4845 71.233C37.0479 71.6269 37.0154 72.3036 37.4077 72.741L48.5108 86.3477C48.716 86.5767 49.0053 86.7003 49.3 86.7003C49.4276 86.7003 49.5576 86.6757 49.6812 86.6298ZM15.3552 73.8243V85.6329V85.6361C15.3552 85.6377 15.3528 85.64 15.3528 85.64C15.3496 86.2272 14.8765 86.7027 14.2917 86.7027C13.9574 86.7027 13.661 86.5458 13.4653 86.3049L2.1268 74.6444V85.6329C2.1268 86.2241 1.64899 86.7027 1.06261 86.7027C0.476236 86.7027 0 86.2241 0 85.6329V72.0009C0 71.1942 1.02774 70.5341 1.81856 71.279C2.46199 71.9391 13.2283 83.0029 13.2283 83.0029V74.2664C11.9954 73.1594 10.4225 72.5556 8.75604 72.5556C8.16808 72.5556 7.69263 72.0762 7.69263 71.4882C7.69263 70.8971 8.16808 70.42 8.75604 70.42C11.1372 70.42 13.3401 71.3472 15.0493 73.058C15.2466 73.2521 15.3552 73.5311 15.3552 73.8243Z" fill="#2F2F2F"/>
</g>
</g>
</g>
<defs>
<clipPath id="clip0_1_8188">
<rect width="150" height="115" fill="white"/>
</clipPath>
<clipPath id="clip1_1_8188">
<rect width="150" height="115" fill="white"/>
</clipPath>
<clipPath id="clip2_1_8188">
<rect width="150" height="115" fill="white"/>
</clipPath>
</defs>
</svg>
