<svg width="20" height="20" viewBox="0 0 20 20" fill="none" xmlns="http://www.w3.org/2000/svg">
<path d="M15.4444 16.2222H4.55556C3.69645 16.2222 3 15.5258 3 14.6667L3 5.33333C3 4.47422 3.69645 3.77777 4.55556 3.77777L12.3333 3.77777C13.1924 3.77777 13.8889 4.47422 13.8889 5.33333V6.1111M15.4444 16.2222C14.5853 16.2222 13.8889 15.5258 13.8889 14.6667L13.8889 6.1111M15.4444 16.2222C16.3036 16.2222 17 15.5258 17 14.6667V7.66666C17 6.80755 16.3036 6.1111 15.4444 6.1111L13.8889 6.1111M10.7778 3.77777L7.66667 3.77777M6.11111 13.1111H10.7778M6.11111 6.88888H10.7778V9.99999H6.11111V6.88888Z" stroke="white" stroke-width="1.67" stroke-linecap="round" stroke-linejoin="round"/>
</svg>
