<svg width="150" height="115" viewBox="0 0 150 115" fill="none" xmlns="http://www.w3.org/2000/svg">
<g clip-path="url(#clip0_1_8159)">
<g clip-path="url(#clip1_1_8159)">
<path d="M47.1589 88.963C47.0362 88.5718 46.6778 87.6926 46.5802 87.0434C46.3647 85.6056 47.1164 84.6588 47.8066 84.4419C48.5813 84.2258 48.8839 84.6148 49.1837 85.5192C49.5714 86.8963 49.6146 88.7008 49.4843 91.2842C49.3148 94.813 47.5494 99.0747 43.1608 98.9861C39.3725 98.9032 37.6962 96.4495 37.5219 92.7059C37.4396 90.9411 37.5659 89.177 38.2967 86.6822C38.6843 85.3463 39.0302 84.8707 40.233 84.6148C41.1785 84.4419 41.0934 85.4306 40.8793 86.5965C40.408 89.177 40.189 90.423 40.3634 93.3508C40.5321 96.4495 41.9552 97.655 43.5045 97.655C45.8285 97.6997 46.8605 95.7634 47.2928 92.9632C47.6337 90.7263 47.3764 89.6505 47.1589 88.963ZM96.7091 92.0191C97.6143 92.0191 97.8736 93.0894 97.6575 93.7378C97.4412 94.3821 96.668 95.117 95.4638 95.3311C95.2044 94.684 95.0747 92.0191 96.7091 92.0191ZM79.887 93.4777C79.887 92.7491 79.4972 92.146 79.028 92.146C78.6361 92.146 77.736 92.5748 77.736 93.9526C77.736 95.0319 78.1195 95.5437 78.2952 95.7634C79.5398 95.3743 79.887 94.3389 79.887 93.4777ZM66.5009 84.7006C66.4403 84.0103 65.8991 83.5403 65.167 83.5403C64.3505 83.5403 63.5815 84.3973 63.6631 85.4739C63.7154 86.1837 64.1338 86.7673 64.9558 86.7673C65.8992 86.768 66.5873 85.6921 66.5009 84.7006ZM73.4993 87.2282C73.4247 86.0247 73.1333 85.4815 72.4869 85.5262C71.63 85.5778 71.234 88.2741 71.409 91.1084C71.5206 92.9576 71.796 93.2428 72.0526 93.2246C72.5267 93.1961 73.6639 89.8924 73.4993 87.2282ZM102.046 91.7583C101.513 93.9707 99.8956 97.2255 97.4832 97.2255C96.9247 97.2255 95.9346 97.0087 95.9346 96.4495C95.9346 95.8464 99.7241 95.7634 99.7241 92.8781C99.7241 91.8036 98.7347 90.2954 97.2705 90.2954C95.3342 90.2954 93.4453 92.4061 93.4453 95.3318C93.4453 97.9549 95.0747 98.816 96.7099 98.816C99.5513 98.816 101.273 96.4906 102.176 94.5557C102.608 95.847 102.862 98.816 103.942 98.816C104.371 98.816 104.674 98.6005 105.191 97.4403C106.479 94.555 107.728 91.2416 109.451 91.2416C110.094 91.2416 109.708 92.406 111.257 92.406C111.987 92.406 112.502 91.8036 112.502 91.1119C112.502 90.1211 111.599 89.3493 110.224 89.3493C106.178 89.3493 105.32 95.4175 104.674 95.4175C103.597 95.4175 103.941 90.5541 103.165 90.5541C102.476 90.5534 102.138 91.3741 102.046 91.7583ZM67.6208 96.9215C68.2657 96.9215 69.3751 96.7124 70.2481 95.3143C69.7487 94.2057 69.3925 91.9654 69.343 91.1496C69.0864 86.9779 70.6936 83.0537 72.4528 82.9449C73.7428 82.8668 74.7747 84.0877 74.8932 86.0658C75.2105 91.2639 73.4792 93.4338 72.6125 95.306C72.7589 96.0318 73.9903 97.2674 75.1519 97.2674C75.5807 97.2674 76.0995 97.0519 76.2299 96.8776C76.1434 96.5785 76.0556 96.1915 76.0556 95.6302C76.0556 92.618 77.9925 90.0779 79.6716 90.0779C81.0054 90.0779 81.78 91.842 81.78 93.0064C81.78 94.3814 80.6171 95.5026 78.8969 96.5785C79.1995 96.8776 79.756 97.0952 80.2314 97.0952C82.6864 97.0952 83.9709 94.1248 84.922 91.4125C85.0935 90.8951 85.3968 90.165 85.9979 90.165C87.0305 90.165 87.4628 96.9648 89.1795 96.9648C89.9137 96.9648 90.5147 95.4573 90.5147 94.2984C90.5147 93.4366 90.2135 93.3501 90.2135 92.102C90.2135 90.7263 90.9455 89.5654 91.9377 89.5654C92.5395 89.5654 92.7571 90.165 92.7571 90.8951C92.7571 93.65 90.7747 98.7721 87.8526 98.7721C85.654 98.7721 85.8256 94.9845 85.0517 94.9845C84.1871 94.9845 82.9822 98.8146 78.7261 98.8146C78.0344 98.8146 77.3044 98.4708 76.7033 97.7806C75.6721 98.4708 74.8089 98.7721 73.8188 98.7721C72.2283 98.7721 71.538 97.1363 70.8944 97.1363C70.1184 97.1363 69.26 98.8146 66.6753 98.8146C64.61 98.8146 64.2654 96.0632 63.5354 96.0632C62.8885 96.0632 61.899 98.8146 60.8239 98.8146C59.0138 98.8146 58.6303 94.039 57.0349 94.039C55.7875 94.039 51.8445 98.8892 50.7742 98.7783C50.344 98.7337 50.1627 98.4123 50.208 97.9814C50.2687 97.3859 50.7812 95.792 50.989 95.0382C51.3369 93.7295 51.6562 92.2952 51.8347 91.8378C52.0118 91.3762 52.4895 91.0471 52.873 91.0826C53.0661 91.1008 53.124 91.4613 53.1839 91.759C53.4015 92.823 53.7048 93.908 54.0471 93.908C54.6516 93.908 56.6479 90.0772 57.8096 90.0772C59.232 90.0772 59.4021 96.1036 61.3377 96.1036C61.9848 96.1036 62.4596 95.3304 62.8884 94.3807C62.9324 92.7861 63.3625 90.5102 64.6531 90.5102C65.5575 90.5102 65.9884 92.5309 65.3406 94.2977C65.3392 96.4049 66.715 96.9215 67.6208 96.9215Z" fill="#2F2F2F"/>
<path d="M97.5965 29.4374C97.2772 29.4374 96.8198 29.4374 96.5681 28.936C96.3617 28.5247 96.4314 27.8616 96.043 27.5652C96.4314 27.6789 96.8421 27.6789 97.1614 27.6789C98.1906 27.6789 99.1737 26.9712 99.9282 26.9712C100.426 26.9712 100.586 27.2912 100.586 27.6098C100.587 28.616 98.5574 29.4374 97.5965 29.4374ZM98.0986 32.0179C100.472 32.0179 102.644 30.1228 102.644 28.4563C102.644 27.6789 102.277 27.0402 101.341 26.9258C101.501 27.1315 101.569 27.2912 101.569 27.6566C101.569 28.913 99.6549 30.3062 97.5742 30.3062C96.8198 30.3062 96.5911 30.8305 96.5911 31.1045C96.5911 31.7446 97.2089 32.0179 98.0986 32.0179ZM97.9166 32.9774C98.2143 35.1459 101.501 38.0695 102.391 38.0005C102.987 37.9503 103.215 35.1689 103.215 32.9774C103.215 31.7216 103.284 30.7392 102.621 30.5105C101.568 32.635 98.8084 33.0687 97.9166 32.9774Z" fill="#2F2F2F"/>
<path d="M46.5152 47.3395C47.2906 47.3395 47.1309 42.5891 48.3867 42.5891C48.6844 42.5891 48.7757 42.8861 48.7757 43.2515C48.7757 44.3246 48.25 45.9011 48.25 46.7678C48.25 47.2022 48.3643 47.3395 48.57 47.3395C49.1188 47.3395 50.0775 42.1094 51.0132 42.1094C51.3103 42.1094 51.4469 42.4064 51.4469 42.7034C51.4469 43.7995 50.0552 46.9505 50.0552 47.8409C50.0552 47.9782 50.0998 48.0919 50.2149 48.0919C50.7859 48.0919 51.9274 45.6264 52.292 44.3936C52.4977 43.7535 52.7717 43.4105 53.0235 43.4105C53.2515 43.4105 53.4578 43.6622 53.4578 44.1879C53.4578 45.4207 52.315 48.3206 51.3103 50.2625C50.5349 51.7692 49.3245 53.937 49.3245 55.1475C49.3245 55.7646 49.4367 56.4033 50.3278 57.18C48.8664 57.0887 48.273 56.952 47.7256 55.8106C45.2817 60.674 52.2237 60.195 49.8488 64.5089C49.4144 63.7343 45.9902 62.9345 45.9902 58.4135C45.9902 54.5088 49.4144 52.2253 49.4144 50.6048C49.4144 50.2855 49.3015 50.0114 49.0044 49.7604C48.25 49.1196 48.227 48.596 47.6336 48.596C47.2006 48.596 46.6735 49.6001 47.2222 50.4905C47.4056 50.7875 47.5653 50.9702 47.5653 51.2442C47.5653 51.8829 46.5598 53.5947 45.8528 53.5947C45.1444 53.5947 44.5977 51.839 44.5977 49.006C44.5977 46.4931 45.1674 43.9599 45.8758 43.9599C46.0808 43.9599 46.1491 44.0966 46.1491 44.2799C46.1491 44.577 46.0585 45.1696 46.0585 46.1744C46.0585 47.2475 46.3095 47.3395 46.5152 47.3395Z" fill="#2F2F2F"/>
<path d="M52.3397 54.0298C53.2998 54.0298 54.0982 53.3207 54.0982 51.7477V49.4174C54.0982 48.527 54.1672 47.523 54.7613 46.8138C54.6923 47.1116 54.6923 47.4309 54.6923 47.728C54.6923 49.6921 55.7877 51.04 55.7877 52.9344C55.7877 53.6414 55.582 54.0305 55.0353 54.0305C54.5096 54.0305 54.5556 53.5508 54.4405 53.5508C54.3499 53.5508 54.2125 53.8471 54.2125 54.1672C54.2125 54.6469 54.5549 55.3999 55.5136 55.3999C56.3364 55.3999 56.9974 54.6469 56.9974 53.8018C56.9974 51.7484 55.3993 49.4634 55.3993 47.2719C55.3993 46.3125 55.6503 45.6738 55.856 45.1704C55.856 49.7152 59.7146 53.0258 59.7146 54.9202C59.7146 55.3546 59.3953 55.6977 58.9156 55.6977C58.3905 55.6977 58.1388 55.2856 58.1388 54.9655C58.1388 54.8059 58.1158 54.7605 58.0475 54.7605C57.9115 54.7605 57.5001 55.2173 57.5001 55.812C57.5001 56.5644 58.1158 57.4792 59.2579 57.4792C60.5583 57.4792 61.2668 56.3817 61.2668 55.3999C61.2668 53.0034 56.586 49.3721 56.586 45.4911C56.586 44.828 56.699 43.7549 57.1801 42.9336C54.1658 44.8734 53.2301 47.4546 53.2301 49.7152C53.2301 51.6793 53.1618 52.6597 52.157 52.6597C51.6313 52.6597 51.4946 52.1814 51.3112 52.1814C51.1746 52.1814 51.1055 52.5921 51.1055 52.7057C51.1069 53.5501 51.724 54.0298 52.3397 54.0298Z" fill="#2F2F2F"/>
<path d="M86.9343 28.3166C87.2244 28.1221 88.5115 28.4303 90.1759 27.6075C90.3809 27.4952 90.5866 27.4492 90.7693 27.4492C91.5697 27.4492 91.364 28.3619 92.0955 28.3619C92.6651 28.3619 93.3979 27.8822 93.8323 27.8822C94.5129 27.8822 95.4953 30.0291 95.4953 31.0338C95.4953 32.1983 93.7403 32.9067 91.6611 32.9067C88.6259 32.9067 86.7969 30.2578 86.7969 28.5446C86.7976 28.4079 86.8667 28.3619 86.9343 28.3166ZM91.9128 31.2165C92.9182 31.2165 93.672 30.7598 93.672 30.4851C93.672 30.3952 93.5353 30.3261 93.2376 30.3261C92.9405 30.3261 92.3465 30.3038 91.2267 30.1204C90.2658 29.9608 89.5351 29.5954 89.2611 29.5954C89.1697 29.5954 89.1237 29.6407 89.1237 29.709C89.1237 30.3038 90.2212 31.2165 91.9128 31.2165Z" fill="#2F2F2F"/>
<path d="M52.8197 62.6395C52.0667 62.8229 50.8555 64.0082 50.8555 65.8832C50.8555 68.1193 53.2534 71.5687 57.2034 71.5687C60.5363 71.5687 61.3591 69.2621 61.3591 67.7079C61.3591 64.2607 59.2366 61.8398 56.4741 61.8398C54.9666 61.8398 53.6188 62.9359 53.6188 64.5563C53.6188 66.0652 54.7609 68.325 57.4774 68.325C58.7562 68.325 59.5093 67.4102 59.5093 66.3629C59.5093 65.3344 58.5735 63.9197 57.2027 63.9197C56.792 63.9197 56.4957 64.1909 56.4957 64.6267C56.4957 65.1734 57.248 65.7228 58.1852 65.7228C58.4125 65.7228 58.5959 65.6768 58.6879 65.6308C58.7325 65.7012 58.7562 65.8142 58.7562 65.9055C58.7562 66.4312 58.2535 66.7513 57.4774 66.7513C56.313 66.7513 55.1939 65.8839 55.1939 64.511C55.1939 63.691 55.9023 63.0976 56.9294 63.0976C58.9612 63.0976 60.171 64.9007 60.171 66.706C60.171 68.3257 59.282 69.2635 57.4544 69.2635C53.8008 69.2628 52.0214 65.9738 52.8197 62.6395Z" fill="#2F2F2F"/>
<path d="M78.8829 76.0164C79.9783 76.0164 79.9212 75.9251 80.2642 75.9251C80.6059 75.9251 80.6296 76.1308 80.6296 76.2681C80.6296 76.7708 79.5098 77.3872 77.5233 77.3872C76.3589 77.3872 75.6504 76.7701 75.4454 76.0854C74.304 76.8162 72.5692 77.4786 70.8561 77.4786C66.176 77.4786 64.9886 75.4446 63.5264 74.7843C62.4073 74.2816 60.6948 75.2641 58.2969 72.5921C58.617 72.6612 59.0514 72.6835 59.3937 72.6835C61.4932 72.6835 62.6123 71.6578 62.6123 70.0123C62.6123 69.8059 62.5893 69.58 62.5663 69.375C63.2064 69.626 64.6685 70.7207 65.0116 72.6612C65.0562 72.8899 65.9919 73.0949 66.586 73.0949C67.4088 73.0949 68.4589 72.7518 68.6185 71.4061C71.3588 71.1781 73.2093 69.5577 73.5977 67.5C74.578 67.8201 75.6971 68.7105 75.9712 69.1686C76.3595 69.0319 76.8156 68.9629 77.3406 68.9629C78.0713 68.9629 78.8941 69.1002 79.8752 69.3973C79.9212 69.1002 79.9665 68.7349 80.4239 68.7349C81.1086 68.7349 80.9259 69.4886 81.1546 69.9202C81.269 70.1489 81.8407 70.2856 81.8407 70.743C81.8407 71.1781 81.4733 71.3385 81.2453 71.3385C81.1539 71.3385 81.0396 71.3155 80.9706 71.2931C80.5145 71.4528 80.4908 74.739 78.5734 74.739C77.1586 74.739 75.8568 73.5746 75.2851 72.1145C75.1254 71.6808 74.783 71.4061 74.463 71.4061C74.0983 71.4061 73.8926 71.4751 73.4596 71.9548C72.2269 73.3006 70.1713 74.465 67.6368 74.465C66.86 74.465 66.2437 74.3953 66.0833 74.3953C65.9912 74.3953 65.9912 74.4183 65.9912 74.4406C65.9912 74.601 66.7673 75.218 68.4575 75.218C72.4765 75.218 73.4589 72.9568 74.0976 72.9568C74.1904 72.9568 74.4623 72.9568 74.622 73.3229C75.5598 75.5137 77.6042 76.0164 78.8829 76.0164ZM77.1126 71.4528C77.1126 71.9555 77.524 72.3669 78.0267 72.3669C78.5294 72.3669 78.9401 71.9555 78.9401 71.4528C78.9401 70.9494 78.5294 70.538 78.0267 70.538C77.524 70.538 77.1126 70.9494 77.1126 71.4528Z" fill="#2F2F2F"/>
<path d="M95.1989 60.0578C94.8788 60.0578 94.5365 60.3096 94.5365 60.9273C94.5365 61.6099 95.0622 62.045 95.3585 62.181C95.5189 62.2737 95.7706 62.3651 96.0195 62.3651C96.6826 62.3651 97.2091 62.181 97.2091 61.6323C97.2084 60.9273 96.1792 60.0578 95.1989 60.0578ZM92.7354 61.4726C92.2557 61.4726 89.6033 65.0119 87.8943 65.0119C87.4836 65.0119 87.1406 64.2358 87.1406 63.6446C87.1406 63.3245 87.3456 63.0958 88.0784 62.9347C92.0047 62.0443 91.1359 59.0977 94.4897 59.0977C96.3389 59.0977 98.3972 60.3556 98.3972 63.1858C98.3972 66.2 94.107 69.9436 93.4669 69.9436C92.9411 69.9436 92.3701 69.1906 92.3701 68.6886C92.3701 68.5289 92.4391 68.3232 92.8958 68.1405C95.0852 67.2717 96.3396 65.2629 96.3396 64.2344C96.3396 64.0057 96.2259 63.7798 95.9289 63.7798C95.5412 63.7798 93.8789 67.5688 92.027 67.5688C90.7461 67.5688 89.4437 66.4071 89.4437 65.8577C89.4437 64.9429 93.1468 63.2548 93.1468 61.9746C93.1461 61.4942 92.9181 61.4726 92.7354 61.4726Z" fill="#2F2F2F"/>
<path d="M47.5425 31.5393C47.5425 31.5393 46.8808 32.0406 46.0588 32.0406C45.0777 32.0406 44.301 31.3106 44.301 30.2828C44.301 29.5744 44.6663 28.8444 45.5107 28.4783C45.4884 28.6157 45.4884 28.7293 45.4884 28.8667C45.4877 30.1692 46.2184 31.1502 47.5425 31.5393ZM52.429 35.9237C51.9269 36.5164 51.4012 37.5218 51.4012 38.5489C51.4012 39.7816 52.1556 40.8087 53.3201 40.8087C54.4385 40.8087 54.9642 39.85 54.9642 38.8689C54.9642 37.3391 53.5711 36.2646 52.429 35.9237ZM44.849 36.8364C44.8058 36.9068 44.78 36.9968 44.78 37.0881C44.78 37.2938 45.0087 37.5218 45.213 37.5218C45.3957 37.5218 45.51 37.4765 45.6014 37.4765C46.1487 37.4765 46.7658 37.8642 47.6562 37.8642C48.1805 37.8642 48.7976 37.7038 49.5737 37.3168C51.2178 36.494 51.8579 34.4622 51.8579 34.1192C51.8579 33.6848 51.5093 33.7419 51.2178 33.3424C50.9264 32.9443 51.0379 32.5922 50.8524 32.406C50.7472 32.2993 50.4194 32.2923 50.0074 32.2463C49.87 32.2317 49.6873 32.2233 49.5046 32.2233C48.7523 32.2233 47.8591 32.316 46.8564 32.9547C44.8762 34.2189 45.1677 36.3114 44.849 36.8364ZM50.2145 34.0048C50.3727 34.2203 50.8092 34.4852 50.8092 34.6449C50.8092 34.9636 50.6251 35.3756 50.2605 35.3756C49.4607 35.3756 48.822 34.1652 48.822 33.4791C48.822 33.0461 49.0737 33.0008 49.4154 33.0008C49.5751 33.0008 49.6441 33.0238 49.7577 33.0921C49.9627 33.2064 49.9627 33.6625 50.2145 34.0048ZM48.1129 36.7911C47.3599 36.7911 46.5378 35.8554 46.5378 35.0096C46.5378 34.5536 46.8801 33.9818 47.1312 33.9818C47.2225 33.9818 47.2685 34.0508 47.2908 34.2112C47.4275 35.3296 48.1589 35.9697 48.8443 36.2884C48.9127 36.3337 48.9587 36.3567 48.9587 36.402C48.9587 36.5624 48.5243 36.7911 48.1129 36.7911ZM50.0548 31.0366C50.1684 30.6705 50.2598 30.2152 50.2598 29.7118C50.2598 28.6164 49.7564 26.9492 48.2042 26.9492C47.3145 26.9492 46.6738 27.6569 46.6738 28.502C46.6738 30.3065 48.4783 31.0366 50.0548 31.0366ZM44.1406 40.17C44.1406 41.9048 44.6663 42.7276 45.6021 42.7276C46.3328 42.7276 47.3145 42.2018 48.4783 41.1971C47.5886 41.4028 46.9025 41.5401 46.2868 41.5401C45.4647 41.5401 44.826 41.2201 44.1406 40.17ZM44.9404 38.1375C44.918 38.2525 44.918 38.3662 44.918 38.4798C44.918 39.5529 45.4877 40.147 46.2414 40.147C46.8104 40.147 47.4742 39.8047 48.0662 39.0502C47.8166 39.0955 47.5188 39.1185 47.2448 39.1185C46.4011 39.1185 45.4877 38.8912 44.9404 38.1375ZM50.5345 37.8181C50.0081 37.9548 48.9127 38.5942 48.9127 39.7356C48.9127 40.557 49.5514 41.0834 50.3511 41.0834C50.7625 41.0834 51.0588 40.9914 51.2415 40.8547C50.6028 40.2383 50.3741 39.5529 50.3741 38.8689C50.3741 38.3885 50.4425 38.0922 50.5345 37.8181ZM51.3559 31.5616C51.3559 32.0636 51.7666 32.4757 52.2686 32.4757C52.7713 32.4757 53.1827 32.0643 53.1827 31.5616C53.1827 31.0596 52.7713 30.6475 52.2686 30.6475C51.7666 30.6475 51.3559 31.0596 51.3559 31.5616ZM52.5426 33.6164C52.5426 34.1192 52.9547 34.5306 53.4581 34.5306C53.9595 34.5306 54.3708 34.1192 54.3708 33.6164C54.3708 33.1151 53.9595 32.7037 53.4581 32.7037C52.954 32.7037 52.5426 33.1151 52.5426 33.6164Z" fill="#2F2F2F"/>
<path d="M88.1675 44.83C88.1675 44.3739 88.5788 43.9856 89.03 43.9856C89.5334 43.9856 89.9218 44.3739 89.9218 44.83C89.9218 45.355 89.5327 45.7211 89.03 45.7211C88.5788 45.7211 88.1675 45.355 88.1675 44.83ZM80.1503 37.7974C80.1503 38.2994 80.5624 38.7108 81.063 38.7108C81.5672 38.7108 81.9785 38.2994 81.9785 37.7974C81.9785 37.296 81.5665 36.8846 81.063 36.8846C80.5624 36.8846 80.1503 37.296 80.1503 37.7974ZM79.375 41.0166C79.375 41.725 79.9669 42.3177 80.6761 42.3177C81.3831 42.3177 81.9785 41.725 81.9785 41.0166C81.9785 40.3096 81.3831 39.7148 80.6761 39.7148C79.9669 39.7148 79.375 40.3096 79.375 41.0166ZM82.2526 39.5552C82.2526 40.3326 82.8697 40.9483 83.6415 40.9483C84.4176 40.9483 85.0367 40.3326 85.0367 39.5552C85.0367 38.7791 84.4176 38.1627 83.6415 38.1627C82.8697 38.1627 82.2526 38.7791 82.2526 39.5552ZM82.3676 36.5869C82.3676 37.0673 82.756 37.4564 83.2308 37.4564C83.7106 37.4564 84.0989 37.0673 84.0989 36.5869C84.0989 36.1086 83.7099 35.7202 83.2308 35.7202C82.756 35.7202 82.3676 36.1086 82.3676 36.5869ZM86.4989 34.3961C86.4989 34.8744 86.8873 35.2628 87.3677 35.2628C87.8474 35.2628 88.2365 34.8744 88.2365 34.3961C88.2365 33.9157 87.8474 33.5273 87.3677 33.5273C86.8873 33.5273 86.4989 33.9157 86.4989 34.3961ZM84.785 37.2047C84.785 38.003 85.4474 38.6647 86.2472 38.6647C87.0477 38.6647 87.7108 38.003 87.7108 37.2047C87.7108 36.4042 87.0484 35.7432 86.2472 35.7432C85.4474 35.7432 84.785 36.4042 84.785 37.2047ZM82.4353 42.5471C82.4353 43.0498 82.8466 43.4598 83.3452 43.4598C83.8479 43.4598 84.26 43.0498 84.26 42.5471C84.26 42.0444 83.8479 41.6337 83.3452 41.6337C82.8466 41.6337 82.4353 42.0444 82.4353 42.5471ZM85.4251 40.7196C85.4251 41.2223 85.8358 41.6337 86.3399 41.6337C86.842 41.6337 87.2533 41.2223 87.2533 40.7196C87.2533 40.2183 86.842 39.8069 86.3399 39.8069C85.8358 39.8069 85.4251 40.2183 85.4251 40.7196ZM84.58 43.9395C84.58 44.8069 85.2878 45.5154 86.1566 45.5154C87.0246 45.5154 87.7345 44.8069 87.7345 43.9395C87.7345 43.0721 87.0246 42.3637 86.1566 42.3637C85.2878 42.3637 84.58 43.0721 84.58 43.9395ZM87.8697 41.9977C87.8697 42.5924 88.3501 43.0721 88.94 43.0721C89.5341 43.0721 90.0138 42.5924 90.0138 41.9977C90.0138 41.405 89.5341 40.9253 88.94 40.9253C88.3501 40.9253 87.8697 41.405 87.8697 41.9977ZM87.8014 39.1208C87.8014 39.6472 88.2365 40.0809 88.756 40.0809C89.2824 40.0809 89.7168 39.6472 89.7168 39.1208C89.7168 38.5964 89.2824 38.1627 88.756 38.1627C88.2365 38.1627 87.8014 38.5964 87.8014 39.1208Z" fill="#2F2F2F"/>
<path d="M90.1262 69.0783C89.5322 69.5357 88.1432 70.5614 85.8346 70.5614C84.6011 70.5614 84.0524 70.173 83.8697 70.173C83.641 70.173 83.39 70.401 83.1383 70.6987C82.5958 71.3388 81.8867 72.5263 81.8867 73.8267C81.8867 74.7394 82.5958 75.6514 83.915 75.6514C88.1893 75.6514 91.3834 72.9809 91.3834 70.8131C91.3834 69.581 90.6527 69.0783 90.1262 69.0783ZM88.9388 68.8273C89.1236 68.6697 89.1668 68.4166 89.1668 68.1642V67.6392C89.1668 66.9761 88.1662 66.5898 86.7947 66.5898C85.1262 66.5898 84.2351 67.3414 84.2351 67.6622V68.7122C84.2351 69.1473 85.2412 69.581 86.4754 69.581C87.4578 69.581 88.3489 69.33 88.9388 68.8273ZM88.7547 71.0878C88.8698 71.0878 89.0057 71.1555 89.0057 71.5675C89.0057 72.0689 88.7784 72.7306 87.9599 73.2549C87.3888 73.6447 86.6113 73.9647 85.4692 73.9849C85.6519 73.439 85.7893 72.8665 85.7893 72.3214C85.7893 72.1379 85.767 72.0005 85.7439 71.7955H86.041C87.8462 71.7962 88.6236 71.0878 88.7547 71.0878Z" fill="#2F2F2F"/>
<path d="M80.036 43.1836C80.287 45.1234 82.8927 44.1417 82.8927 46.4929C82.8927 46.8359 82.8014 47.3393 82.8014 47.7723C82.8014 48.2751 82.846 48.7088 83.2309 48.7088C83.6186 48.7088 83.7106 48.4354 83.7106 48.0694C83.7106 47.7033 83.6186 47.2473 83.6186 46.9963C83.6186 46.1965 84.1903 46.0145 84.5341 46.0145C85.4022 46.0145 86.0646 46.9049 87.3677 46.9049C87.07 48.3664 84.0537 47.978 84.0537 49.5769C84.0537 50.3766 84.8534 50.5579 85.3791 50.5579C85.8589 50.5579 86.0192 50.4896 86.0192 50.0796C86.0192 49.8502 85.9732 49.5992 85.9732 49.4395C85.9732 49.3475 86.0422 49.2561 86.1566 49.2561C86.6607 49.2561 89.1221 51.129 89.1221 51.7007C89.1221 52.2251 86.522 52.7501 85.7682 52.7501C85.5395 52.7501 85.4935 52.5904 85.4935 52.4991C85.4935 52.3394 85.8819 51.8597 85.8819 51.5864C85.8819 51.3807 85.5395 51.2433 84.6247 51.2433C84.1903 51.2433 83.8703 51.2893 83.8703 51.6324C83.8703 52.2474 84.8757 53.0018 84.8757 53.5715C84.8757 54.0289 84.6017 54.3029 83.8703 54.3029C83.2532 54.3029 82.3203 53.8225 82.3203 53.0241C82.3203 52.3847 82.9792 51.7467 82.9792 51.3577C82.9792 51.2433 82.892 51.0606 82.618 51.0606C81.7715 51.0606 81.5435 53.2974 78.5508 53.5492C79.0306 53.1155 79.4406 52.6357 79.4406 51.6554C79.4406 51.1757 79.3276 50.7866 79.3276 50.2623C79.3276 49.5769 79.6463 49.2338 80.103 49.2338C80.9473 49.2338 81.3587 50.4205 81.9089 50.4205C82.2066 50.4205 82.526 50.1479 82.526 49.7365C82.526 48.001 79.1909 48.2521 79.1909 45.8088C79.1916 45.1464 79.4189 44.3244 80.036 43.1836ZM90.9273 49.8739C90.9273 50.4435 91.1114 51.106 91.6824 51.106C92.1621 51.106 92.5728 50.3766 92.5728 49.5769C92.5728 48.6634 92.4131 47.955 92.4131 47.589C92.4131 47.43 92.4822 47.3616 92.5728 47.3616C92.9159 47.3847 93.2352 48.3204 93.602 48.3204C94.0134 48.3204 94.6263 47.5659 94.8766 47.5659C94.9456 47.5659 94.9679 47.658 94.9679 47.6803C94.9679 48.0233 94.4422 48.7778 94.4422 49.0741C94.4422 49.3251 95.7677 49.3705 95.7677 49.5992C95.7677 49.9422 94.378 49.9422 93.7163 50.2393C93.0769 50.5126 92.6865 50.8549 92.6865 51.3123C92.6865 51.769 93.1439 51.8597 93.784 51.8597C95.3096 51.8597 96.3834 51.0383 96.7257 51.0383C96.7941 51.0383 96.8394 51.0829 96.8394 51.152C96.8394 51.3807 96.0633 52.1337 96.0633 52.4768C96.0633 52.8644 97.4802 53.3198 97.4571 53.5492C97.4348 53.6175 97.3428 53.6398 97.1831 53.6398C96.9307 53.6398 96.543 53.5715 96.2453 53.5715C96.0626 53.5715 95.9029 53.5938 95.8332 53.6851C95.6749 53.8685 95.8792 55.079 95.5613 55.079C95.2636 55.079 94.4868 52.3847 92.7325 52.3847C92.4808 52.3847 92.2981 52.5904 92.2981 52.9328C92.2981 53.8455 93.1892 54.8956 94.035 55.3983C94.4178 55.65 95.0586 55.901 95.0586 56.0391C95.0586 56.3117 93.6006 56.0614 93.6006 56.5174C93.6006 56.9288 93.7833 57.5466 93.7833 57.9105C93.7833 58.0249 93.7603 58.1609 93.6236 58.1609C93.3496 58.1609 92.6858 56.9058 92.3664 56.9058C92.0924 56.9058 91.4983 57.6588 91.2466 57.6588C91.1783 57.6588 91.133 57.5905 91.133 57.5229C91.133 56.9971 91.9788 55.8104 91.9788 54.6453C91.9788 54.0972 91.9097 52.9098 91.2466 52.9098C90.6986 52.9098 90.0808 53.7772 89.8068 54.6453C89.6478 55.1473 89.7615 57.0885 89.3954 57.0885C89.053 57.0885 89.1444 55.7874 88.6863 55.7874C88.3495 55.7874 87.6181 56.4031 87.3663 56.4031C87.3203 56.4031 87.2743 56.3801 87.2743 56.3347C87.2743 56.0614 87.9374 55.1703 87.9374 54.9876C87.9374 54.6453 86.4292 54.5999 86.4292 54.3259C86.4292 54.1655 87.0233 54.0519 87.5713 53.9598C88.733 53.7542 90.4462 52.9098 90.4462 51.723C90.4462 50.3989 89.1667 49.8272 88.3258 49.2791C87.8914 49.0051 87.4117 48.7778 87.4117 48.5951C87.4117 48.4117 87.9597 48.4117 88.1884 48.4117C88.5308 48.4117 88.8697 48.3887 88.8697 48.1154C88.8697 47.909 88.8236 47.499 88.8236 47.179C88.8236 46.9503 88.8459 46.7676 88.9387 46.7676C89.281 46.7676 89.7608 47.886 89.9902 47.886C90.3548 47.886 90.8575 46.9726 91.2013 46.9726C91.3143 46.9726 91.361 47.0416 91.361 47.2466C91.3624 48.0917 90.9273 49.0504 90.9273 49.8739Z" fill="#2F2F2F"/>
<path d="M80.6978 56.2001C81.7492 56.3375 82.0009 56.7021 82.0009 56.9999C82.0009 57.5026 81.5435 57.6616 81.1084 57.6616C80.7898 57.6616 80.4237 57.5932 80.0354 57.5932C79.5319 57.5932 79.0306 57.7076 78.6199 58.1873C78.9162 58.2326 79.3506 58.439 79.3506 58.8964C79.3506 60.2205 75.6747 59.123 75.6747 62.5271C75.6747 64.3302 77.5475 66.2951 80.3777 66.2951C81.8413 66.2951 82.7777 65.8154 82.7777 65.2659C82.7777 64.8329 82.0016 65.1286 82.0016 64.7632C82.0016 64.6035 82.2757 64.3058 82.2757 64.0534C82.2757 63.9432 82.1843 63.7361 82.0016 63.7361C81.5889 63.7361 80.8121 64.3964 79.2363 64.3964C78.0028 64.3964 76.7924 63.6908 76.7924 62.7307C76.7924 62.5257 76.8844 62.4106 77.0211 62.4106C77.1584 62.4106 77.3404 62.5027 77.5008 62.5027C77.6382 62.5027 77.6605 62.4106 77.6605 62.1603C77.6605 61.9086 77.6605 61.2002 78.0935 61.2002C78.5286 61.2002 79.3506 62.799 82.5037 62.799C83.5503 62.799 85.5842 62.5947 86.3386 61.9086C86.3156 64.4208 84.3493 67.7314 80.241 67.7314C75.971 67.7314 73.6875 64.3058 73.6875 61.1542C73.6875 57.6616 76.5407 54.4883 80.4467 54.4883C81.4501 54.4883 82.2973 54.83 82.2973 55.2644C82.2966 55.8591 80.8114 55.4931 80.6978 56.2001ZM87.7087 57.412C87.8684 57.6616 87.9374 57.9133 87.9374 58.1413C87.9374 58.7814 87.503 59.3747 87.503 60.0378C87.503 60.7909 88.0748 61.4066 88.9387 61.4066C89.8751 61.4066 90.5152 60.6549 90.5152 59.7631C90.5152 58.5527 89.4184 57.5256 87.7087 57.412ZM80.149 58.8727C80.3763 59.1 80.446 59.3287 80.446 59.5574C80.446 59.8998 80.2864 60.2659 80.2864 60.6542C80.2864 61.2002 80.6978 61.6806 81.2904 61.6806C81.9312 61.6806 82.3663 61.1772 82.3663 60.5859C82.3663 59.7178 81.4724 58.8727 80.149 58.8727ZM83.1842 54.9904C85.5835 55.4471 86.886 57.2516 86.886 58.9417C86.886 60.1069 86.1552 61.1779 84.8751 61.1779C83.7092 61.1779 82.8683 60.3795 82.8683 59.1007C82.8683 58.142 83.6172 57.1372 83.6172 56.1548C83.6172 55.7671 83.5035 55.3787 83.1842 54.9904ZM84.3723 58.0276C84.3723 58.347 84.601 58.5987 84.9211 58.5987C85.2857 58.5987 85.5151 58.2786 85.5151 57.9133C85.5151 57.4343 85.0808 56.7719 84.6694 56.7719C84.486 56.7719 84.555 57.0459 84.5097 57.3429C84.486 57.5702 84.3723 57.8443 84.3723 58.0276Z" fill="#2F2F2F"/>
<path d="M59.1664 34.5331C59.9425 34.5331 60.8322 30.3314 60.8322 29.6229C60.8322 29.4403 60.7645 29.3029 60.6049 29.3029C59.8965 29.3029 58.9154 33.2996 58.9154 34.1907C58.9147 34.3504 58.96 34.5331 59.1664 34.5331ZM64.7606 35.7888C65.3302 35.7888 65.9696 33.596 65.9696 32.2258C65.9696 31.9288 65.9243 31.6101 65.7862 31.6101C65.3065 31.6101 64.5075 33.8707 64.5075 35.1034C64.5082 35.5832 64.6232 35.7888 64.7606 35.7888ZM61.0365 33.7563C61.2875 33.7563 61.6075 33.4809 62.203 32.8206C62.2476 32.5236 62.2476 32.2488 62.2476 31.9065C62.2476 31.4505 62.0649 30.9478 61.7916 30.9478C61.1055 30.9478 60.7638 32.7746 60.7638 33.255C60.7645 33.5276 60.9005 33.7563 61.0365 33.7563ZM64.1658 32.8206C64.1658 32.4315 64.0738 32.3402 63.9831 32.3402C63.7544 32.3402 63.5041 32.6149 63.1387 33.2313C63.184 34.0534 63.3214 34.4187 63.5494 34.4187C63.8004 34.4187 64.1658 33.619 64.1658 32.8206ZM65.9243 30.1257C67.4318 30.1257 68.1158 31.4275 68.1158 32.8889C68.1158 33.5276 67.9345 34.4647 67.6375 34.4647C67.3404 34.4647 67.3865 33.939 67.3404 33.4593C67.2951 32.8429 67.1801 32.7062 66.9744 32.7062C66.586 32.7062 66.3357 33.619 66.3357 34.4647C66.3357 34.9891 66.427 35.5832 66.837 35.5832C67.0657 35.5832 67.2714 35.4688 67.4088 35.3321C67.3174 36.3815 66.54 37.2963 65.4446 37.2963C63.4351 37.2963 62.6813 34.9438 62.454 33.5736C61.2436 34.8524 60.1252 35.7888 58.1149 35.7888C56.2435 35.7888 55.3984 34.4187 55.3984 33.1176C55.3984 32.7286 55.5351 31.7245 56.0155 31.7245C56.5858 31.7245 56.0838 33.596 57.2022 33.596C57.4769 33.596 57.9776 33.3673 58.253 32.6149C58.4127 32.1575 58.504 31.6792 58.504 31.2671C58.504 30.65 58.3674 30.263 57.9106 30.263C57.5216 30.263 57.0419 30.5587 56.8822 30.719C57.4309 29.0749 58.755 28.2305 60.2144 28.2305C62.0203 28.2305 62.9784 29.8286 62.9784 31.6101C62.9784 31.8605 62.9553 32.1345 62.9093 32.3862C63.6861 31.1074 64.7606 30.1257 65.9243 30.1257Z" fill="#2F2F2F"/>
<path d="M61.6566 36.2617C60.6749 36.2617 60.6295 37.4513 60.6295 39.8471C59.8981 38.2719 58.689 36.5818 57.2729 36.5818C56.3142 36.5818 55.9495 37.2219 55.9495 38.3396C55.9495 38.5683 55.9718 38.9113 56.0178 39.1156C56.1322 38.7287 56.4975 38.5683 56.9536 38.5683C57.9367 38.5683 59.1234 39.3213 59.8995 40.3498C59.0098 40.1901 58.1417 40.0297 57.4117 40.0297C56.9543 40.0297 56.5436 40.0758 56.2012 40.2354C55.5388 40.5318 54.6484 41.5142 54.6484 42.9987C54.6484 43.2274 54.6714 43.4777 54.7174 43.7517C55.5165 41.9702 57.6397 41.1712 59.0098 41.1712C59.2845 41.1712 59.4888 41.1942 59.6492 41.2172C58.9408 41.8559 58.7818 42.975 58.7351 43.7287C58.7135 44.0941 58.5754 44.1178 58.3237 44.1178C58.3237 44.8701 58.9184 45.99 58.9184 46.5603C58.9184 46.766 58.8041 46.9487 58.6904 46.9947C58.6904 47.9995 59.6938 48.7302 59.6938 49.3689C59.6938 49.5286 59.6492 49.6659 59.5795 49.735C59.6492 50.1463 60.7536 50.8373 60.8966 51.1839C61.0723 51.605 61.2696 51.6761 61.384 51.6761C61.7723 51.6761 62.3873 51.2187 62.3873 50.8073C62.3873 50.6707 62.273 50.511 62.183 50.442C61.7486 50.1233 61.5199 49.4379 61.3373 48.9819C61.1769 48.9819 60.9705 48.9143 60.898 48.6451C60.7732 48.1724 60.7669 47.2917 60.5842 46.766C60.2872 46.6977 60.1498 46.5833 60.1498 45.9669C60.1498 45.6699 60.3332 44.5048 60.3332 44.0934C60.1965 44.0934 60.0138 44.0021 60.0138 43.728C60.0138 42.998 60.7453 42.4269 60.9496 41.4912C62.2514 42.4492 62.57 43.431 62.57 44.2998C62.57 44.7551 62.5017 45.1895 62.4103 45.6016C63.3698 45.1212 64.8082 44.4134 64.8082 42.975C64.8082 42.1292 64.4199 41.1935 61.8393 40.8281C62.6383 40.5311 63.6438 40.3721 64.4882 40.3721C65.9503 40.3721 66.7947 40.8281 66.9767 41.8552C67.2738 41.3992 67.5025 40.8734 67.5025 40.3944C67.5025 39.2746 66.5653 38.5453 65.3786 38.5453C63.9855 38.5453 62.7527 39.2746 61.4279 40.1664C62.0234 38.9336 62.432 38.2029 63.1641 38.2029C63.2777 38.2029 63.3921 38.2259 63.5064 38.2489C63.2324 37.2449 62.2053 36.2617 61.6566 36.2617Z" fill="#2F2F2F"/>
<path d="M100.129 52.7305C101.272 52.7305 102.186 54.2143 102.186 55.9505C102.186 57.7996 101.317 59.8098 99.7679 61.1785C99.7449 58.0966 95.9727 59.0784 95.9727 56.8416C95.9727 55.8828 96.6595 55.2427 97.4823 55.2427C98.2137 55.2427 98.7848 55.4484 99.1962 55.8605C98.7848 55.4714 98.5791 54.9227 98.5791 54.3984C98.5791 53.5289 99.1278 52.7305 100.129 52.7305Z" fill="#2F2F2F"/>
<path d="M79.7379 31.0364C80.3326 31.6075 80.8563 31.8578 81.4964 31.8578C81.7488 31.8578 82.0465 31.7902 82.2069 31.7902C82.4126 31.7902 82.5485 31.8808 82.5485 32.0405C82.5485 32.2922 82.3198 32.7036 82.0465 32.9323C82.3198 33.046 82.6176 33.092 82.9376 33.092C84.2345 33.092 85.7197 32.2692 85.7197 30.2151C85.9951 30.579 86.1548 31.3335 86.1548 31.6765C86.1548 34.1651 84.3259 35.1238 82.6399 35.1238C81.5431 35.1238 80.9936 34.7577 80.8556 34.7577C80.4226 34.7577 80.4456 35.6265 80.1486 35.6035C79.6228 35.5122 79.1445 34.3478 79.1445 33.115C79.1452 32.3836 79.3279 31.6075 79.7379 31.0364ZM83.1844 29.3693C83.0018 29.0723 82.3198 28.9133 82.0012 28.9133C80.9943 28.9133 80.3089 29.6203 80.1723 30.2604C80.0809 30.0317 80.0126 29.7577 80.0126 29.4836C80.0126 28.4789 80.698 27.2461 82.3672 27.2461C83.8245 27.2461 84.3956 28.0222 84.602 28.0222C84.83 28.0222 85.0587 27.7935 85.2421 27.7935C85.4931 27.7935 85.4931 28.1819 85.4931 28.4566C85.4931 29.3693 85.081 30.9451 84.0532 31.5162C83.8699 31.1278 83.5045 30.6934 82.9146 30.4201C82.7549 30.3517 82.6866 30.2151 82.6866 30.0777C82.6859 29.826 82.9139 29.506 83.1844 29.3693Z" fill="#2F2F2F"/>
<path d="M63.8706 24.3912C63.8706 25.1903 66.7245 29.095 67.2732 29.095C67.7306 29.095 68.0723 28.2959 68.0723 27.6098C68.0723 27.4285 68.0263 27.2465 67.9363 27.1085C67.5249 26.5374 64.625 24.2539 63.9849 24.2539C63.9159 24.2539 63.8706 24.3229 63.8706 24.3912ZM47.0874 22.0394C47.0874 22.4968 45.3526 24.0259 44.737 24.0259C44.509 24.0259 44.4392 23.7525 44.4392 23.5015C44.4392 23.0455 44.6449 22.4054 44.8966 22.199C45.1923 21.925 45.8777 21.7897 46.4027 21.7897C46.7221 21.7897 47.0874 21.8567 47.0874 22.0394ZM67.9363 23.3642C67.9363 21.9933 64.2318 19.5048 64.1906 18.4324C64.1864 18.3341 64.2401 18.2365 64.3231 18.1493C64.9576 17.48 67.5926 16.9919 67.5926 16.4215C67.5926 16.1259 67.0438 16.1259 66.7698 16.1259C64.6466 16.1259 61.541 16.9019 61.541 17.655C61.541 18.4324 64.3266 20.3276 64.3266 21.264C64.3266 21.515 64.1669 21.6064 63.9152 21.6064C63.1398 21.6064 61.4497 20.6692 60.6506 20.6692C60.2852 20.6692 60.1472 20.9203 60.1472 21.287C60.1472 22.3824 61.449 24.4603 61.449 25.0753C61.449 25.1443 61.426 25.2356 61.3346 25.2356C60.9232 25.2356 58.9842 22.9535 58.298 22.9535C58.0477 22.9535 58.024 23.2951 58.024 23.7979V24.5739C58.024 25.099 58.001 25.419 57.7514 25.419C57.1559 25.419 56.8826 23.7525 56.3122 23.7525C55.7182 23.7525 55.6038 26.7201 55.0342 26.7201C54.3711 26.7201 54.9421 23.4548 54.3027 23.4548C53.595 23.4548 52.7952 25.6247 52.2925 25.6247C52.1105 25.6247 52.0652 25.4413 52.0652 25.2816C52.0652 24.6199 52.4522 23.5468 52.4522 22.9082C52.4522 22.5874 52.3608 22.4054 52.0882 22.4054C51.3791 22.4054 49.827 23.5468 49.2336 23.5468C49.1423 23.5468 49.0279 23.5015 49.0279 23.4095C49.0279 22.8628 51.5165 21.1266 51.5165 20.3506C51.5165 19.5962 48.0901 20.0996 48.0901 19.2308C48.0901 18.5008 50.5354 17.747 50.5354 16.9933C50.5354 16.3309 47.6348 16.0352 46.5164 16.0352C45.1686 16.0352 44.4385 16.1935 44.4385 16.5819C44.4385 17.176 47.4988 17.3593 47.4988 17.8837C47.4988 18.3864 44.3242 19.7335 44.3242 20.5096C44.3242 21.195 48.7992 20.5549 48.7992 21.264C48.7992 22.0394 44.8959 25.3953 44.8959 26.5144C44.8959 26.7661 45.0786 26.8805 45.3289 26.8805C46.5164 26.8805 49.5976 24.6199 50.4434 24.6199C50.7404 24.6199 50.7634 24.9846 50.7634 25.3047C50.7634 25.8987 50.5584 26.8114 50.5584 27.4745C50.5584 27.9989 50.6951 28.3642 51.1511 28.3642C51.9976 28.3642 52.7722 26.9258 53.3447 26.9258C54.0747 26.9258 53.641 31.1498 54.7371 31.1498C55.6728 31.1498 56.0605 26.5834 56.6546 26.5834C57.2487 26.5834 57.7291 27.9075 58.2764 27.9075C58.9604 27.9075 58.6411 25.6017 59.3725 25.6017C60.1709 25.6017 62.4544 28.3419 63.4822 28.3419C63.8015 28.3419 63.9152 28.0902 63.9152 27.7702C63.9152 26.5597 62.2264 23.8209 62.2264 22.9535C62.2264 22.7255 62.2941 22.6564 62.5451 22.6564C63.4355 22.6564 66.0398 23.8892 67.2718 23.8892C67.686 23.8892 67.9363 23.6612 67.9363 23.3642ZM65.5607 18.8431C65.5607 19.2538 66.9992 20.1449 67.6623 20.1449C68.05 20.1449 68.1643 19.6192 68.1643 19.0711C68.1643 18.3864 67.8687 18.3634 67.2739 18.3634C66.5202 18.3634 65.5607 18.5691 65.5607 18.8431ZM60.1946 16.5136C60.1946 16.3762 59.5099 16.2388 58.5742 16.2388C57.0897 16.2388 57.2954 17.4737 56.154 17.4737C54.9665 17.4737 55.2622 16.1935 53.7554 16.1935C52.842 16.1935 51.9983 16.3539 51.9983 16.5589C51.9983 16.8336 53.0707 16.7192 53.0707 17.4737C53.0707 18.2721 50.7641 18.5008 50.7641 18.9805C50.7641 19.1401 50.9461 19.2085 51.1748 19.2085C51.6782 19.2085 52.4759 18.9805 53.0476 18.9805C53.3677 18.9805 53.6647 19.0481 53.6647 19.3451C53.6647 19.9162 52.4306 20.944 52.4306 21.4007C52.4306 21.538 52.5442 21.5841 52.6586 21.5841C53.116 21.5841 53.8927 20.4189 54.6228 20.4189C55.8332 20.4189 55.0349 22.9988 55.6959 22.9988C56.3806 22.9988 56.0842 20.4636 57.066 20.4636C57.8664 20.4636 58.4591 22.222 59.0072 22.222C59.1445 22.222 59.2582 22.1084 59.2582 21.948C59.2582 21.4697 58.5735 20.4866 58.5735 19.8479C58.5735 19.4595 58.8475 19.2761 59.2129 19.2761C59.7372 19.2761 60.4456 19.5962 60.8326 19.5962C60.9693 19.5962 61.1066 19.5508 61.1066 19.3912C61.1066 18.8431 59.0762 18.2497 59.0762 17.542C59.0769 16.8336 60.1946 16.8336 60.1946 16.5136Z" fill="#2F2F2F"/>
<path d="M100.677 20.2154C100.677 22.2465 99.1963 23.7994 96.5216 24.2331C96.8193 24.2554 97.0934 24.2554 97.3681 24.2554C100.494 24.2554 101.638 22.8406 101.638 21.6539C101.638 20.9908 101.272 20.3981 100.677 20.2154ZM96.8193 22.5206C96.8193 20.8994 92.9405 20.488 92.9405 20.1234C92.9405 19.827 95.1062 19.3236 96.2253 19.3006C94.5128 17.1091 92.0724 17.3378 92.0724 16.9494C92.0724 16.7207 93.8999 16.2633 95.5873 16.2633C97.0027 16.2633 98.3275 16.5834 98.3275 17.6565C98.3275 18.2512 97.8478 18.8683 97.8478 19.7803C97.8478 20.2831 98.0974 20.7168 98.7619 20.7168C99.4717 20.7168 99.63 19.9637 99.63 19.1632C99.63 18.5022 99.5164 17.9995 99.5164 17.6795C99.5164 16.7207 100.174 16.082 101.111 16.082C101.888 16.082 102.071 16.423 103.214 16.423C102.596 16.7898 102.368 17.4522 102.368 17.7708C102.368 18.7309 102.987 19.3926 102.987 21.3568C102.987 24.9631 99.6077 26.2419 95.4729 26.2419C94.3364 26.2419 93.1238 26.1505 91.935 25.9685C91.753 25.9455 91.707 25.9002 91.707 25.7859C91.707 25.4888 93.3302 25.3285 93.3302 23.8684C93.3302 23.2966 93.1468 22.7493 93.1468 22.5443C93.1468 22.4299 93.2382 22.3609 93.3302 22.3609C93.6726 22.3609 94.3594 23.685 95.634 23.685C95.9729 23.685 96.8193 23.5707 96.8193 22.5206ZM100.54 17.4752C100.54 17.7938 100.791 18.0448 101.111 18.0448C101.431 18.0448 101.683 17.7938 101.683 17.4752C101.683 17.1551 101.431 16.9034 101.111 16.9034C100.791 16.9034 100.54 17.1551 100.54 17.4752Z" fill="#2F2F2F"/>
<path d="M98.5107 38.5704C98.5107 38.0914 97.2989 38.046 97.1852 36.6982C97.1615 36.4932 97.0932 36.1286 96.8415 36.1286C96.4308 36.1286 96.7501 37.3843 96.2934 37.3843C95.2434 37.3843 94.901 35.3288 94.5126 35.3288C94.4206 35.3288 94.3118 35.3971 94.3118 35.6712C94.3118 35.9229 94.3578 36.0825 94.3578 36.3782C94.3578 36.6759 94.2881 36.8816 94.0148 36.8816C93.3977 36.8816 92.8489 35.4425 92.3232 35.4425C92.2089 35.4425 92.0952 35.5115 92.0952 35.6258C92.0952 35.8999 92.5512 36.4012 92.5512 36.6529C92.5512 37.2017 91.066 36.9039 91.066 37.3613C91.066 37.567 91.271 37.6347 91.5458 37.6347C92.0262 37.6347 92.7806 37.4304 93.169 37.4304C93.3977 37.4304 93.74 37.4757 93.74 37.7713C93.74 38.0914 92.9173 38.5021 92.9173 38.7991C92.9173 38.9364 93.0539 39.0041 93.1683 39.0041C93.7854 39.0041 94.8773 37.9317 95.654 37.9317C95.7907 37.9317 96.1331 38 96.1331 38.2057C96.1331 38.5021 95.357 39.0264 95.357 39.4608C95.357 39.5751 95.4267 39.7118 95.5634 39.7118C95.972 39.7118 96.5207 38.6394 97.2982 38.6394C97.5952 38.6394 98.0296 38.7538 98.259 38.7538C98.4424 38.7538 98.5107 38.6394 98.5107 38.5704ZM99.1048 49.645C99.4709 48.5043 99.9283 47.7038 100.677 46.4711C99.9283 46.0841 97.939 45.2606 97.939 43.9135C97.939 42.3377 99.9032 41.1049 100.311 41.1049C100.494 41.1049 100.539 41.2653 100.539 41.5623C100.539 42.3837 100.151 43.7078 100.151 44.4162C100.151 45.0549 100.562 45.6727 100.928 45.6727C101.316 45.6727 102.39 44.3026 102.39 42.9548C102.39 40.5339 100.265 39.8038 99.6068 39.8038C98.9897 39.8038 97.8699 40.8079 95.2427 40.8079C90.3346 40.8079 89.2148 35.9459 89.2148 33.8213C89.2148 33.73 89.2364 33.707 89.2594 33.707C89.3738 33.707 89.8549 34.3017 91.4077 34.3017C92.2075 34.3017 92.9389 34.0953 94.1047 34.0953C96.8401 34.0953 98.0519 35.9919 99.7435 38.4107C100.767 39.0494 103.213 40.0779 103.213 42.9778C103.213 45.5353 100.493 46.9508 99.8348 49.691C100.881 49.5774 101.499 47.7038 102.573 47.7038C103.121 47.7038 103.372 48.1382 103.372 48.8243C103.372 49.8277 102.801 51.3359 101.704 52.2716C101.726 52.1803 101.726 52.0652 101.726 51.9286C101.726 51.2899 101.476 50.3771 100.743 50.3771C99.6054 50.3771 99.2401 51.6099 98.6007 52.6363C97.9376 50.3081 97.0465 48.2066 95.4483 46.9278C93.8314 45.6267 91.0423 46.3337 91.0423 43.9595C91.0423 43.3194 91.4544 42.4067 91.4544 41.676C91.4544 41.425 91.4084 41.1963 91.2703 41.0136C93.4646 41.8364 92.6872 43.2964 94.0371 44.8039C94.8773 45.7641 97.2075 46.6768 98.5554 50.6268C98.5777 50.5131 98.6007 50.2168 98.6007 50.0111C98.6007 46.6314 94.127 43.3194 93.7387 41.9493C96.3374 42.2464 96.7941 42.8864 98.0282 46.3114C98.2813 47.0198 99.1048 48.7783 99.1048 49.645Z" fill="#2F2F2F"/>
<path d="M86.6151 25.4868C85.0149 25.4868 83.9641 24.6884 83.9641 24.2763C83.9641 24.0707 84.1008 23.9347 84.2849 23.9347C84.7869 23.9347 85.8837 24.71 86.2484 24.71C86.3411 24.71 86.4087 24.6654 86.4087 24.5281C86.4087 24.1167 86.0204 23.432 86.0204 23.0903C86.0204 22.9983 86.0894 22.9306 86.2261 22.9306C86.8424 22.9306 87.7565 23.1816 88.2377 23.1816C88.3973 23.1816 88.4427 23.0903 88.4427 22.9983C88.4427 22.4962 86.9568 21.5145 86.9568 21.2175C86.9568 20.9434 88.8031 20.5313 88.8031 20.099C88.8031 19.6416 86.293 19.9617 86.293 19.5273C86.293 19.2079 86.7734 18.6599 86.7734 18.4089C86.7734 18.2945 86.6814 18.2492 86.5224 18.2492C86.3167 18.2492 85.2199 18.6829 84.7625 18.6829C84.5345 18.6829 84.2598 18.6376 84.2598 18.3168C84.2598 17.7918 85.1509 17.2214 86.5454 17.2214C88.8024 17.2214 90.1516 18.7742 90.1516 21.3771C90.153 24.6654 87.8493 25.4868 86.6151 25.4868ZM82.1638 21.1491C82.1638 20.8974 81.2713 20.4184 81.2713 20.1444C81.2713 20.099 81.3159 20.076 81.385 20.076C81.6374 20.076 82.0718 20.1674 82.4155 20.1674C82.7125 20.1674 82.7579 18.8886 82.9824 18.8886C83.1421 18.8886 83.4154 20.099 83.6685 20.099C83.9648 20.099 84.5129 19.756 84.7416 19.756C84.7869 19.756 84.8329 19.7783 84.8329 19.825C84.8329 19.9847 84.2619 20.6004 84.2619 20.7831C84.2619 20.9887 85.542 21.2405 85.542 21.4231C85.542 21.6518 84.2389 21.6288 84.2389 21.8345C84.2389 21.9928 84.7193 22.6329 84.7193 22.8386C84.7193 22.8846 84.6956 22.9076 84.6502 22.9076C84.4669 22.9076 83.7591 22.5869 83.5534 22.5869C83.3017 22.5869 82.8952 23.5233 82.6895 23.5233C82.6212 23.5233 82.5759 23.432 82.5759 23.3176L82.5299 22.4049C82.5299 22.3135 82.4852 22.2215 82.3702 22.2215C82.0955 22.2215 81.5697 22.1985 81.4087 22.1985C81.2943 22.1985 81.249 22.1762 81.249 22.1302C81.2483 21.9475 82.1638 21.3088 82.1638 21.1491ZM81.4993 24.892C81.8661 24.892 81.9344 25.7838 82.0041 26.3082C82.0494 26.5829 82.0955 26.6052 82.2098 26.6052C82.4845 26.6052 82.9175 25.5551 83.2111 25.5551C83.6441 25.5551 84.8106 26.7656 86.7525 26.7656C89.5137 26.7656 92.1186 24.8237 92.1186 21.4001C92.1186 18.0888 89.7863 16.1476 86.5691 16.1476C85.0393 16.1476 83.9181 16.9014 83.324 16.9014C82.9636 16.9244 82.4155 16.0117 82.1401 16.0117C82.0264 16.0117 81.9121 16.2383 81.9121 16.6274C81.9121 16.8791 81.9121 17.6774 81.6374 17.6774C81.0879 17.6774 78.9654 16.103 78.9654 16.6727C78.9654 17.1984 80.3795 18.7972 80.3795 19.2079C80.3795 19.6186 78.9878 20.0077 78.9878 20.281C78.9878 20.7831 80.4715 20.8744 80.4715 21.5145C80.4715 22.1532 78.918 22.6559 78.918 23.1356C78.918 23.5233 80.4715 23.25 80.4715 23.729C80.4715 24.208 79.3301 25.8068 79.3301 26.2622C79.3301 26.3772 79.3524 26.3772 79.4431 26.3772C79.8775 26.3772 81.1793 24.892 81.4993 24.892Z" fill="#2F2F2F"/>
<path d="M71.1554 64.9895C71.1554 65.1952 71.0863 65.4239 70.9037 65.6512C70.654 65.1952 69.9449 64.9665 69.6249 64.9672C67.273 64.9672 68.1634 68.3699 65.6519 68.3699C64.6018 68.3699 64.5098 68.2325 64.1228 68.2325C63.9624 68.2325 63.8711 68.3015 63.8711 68.4382C63.8711 69.033 64.7161 70.493 67.068 70.493C69.4199 70.493 71.6811 69.0553 71.6811 67.2724C71.6811 66.9753 71.6128 66.6581 71.4754 66.338C71.5668 66.2007 71.7962 66.1093 72.0012 66.1093C72.3658 66.1093 72.5715 66.5221 72.9139 66.5221C73.2799 66.5221 73.554 66.2467 73.554 65.882C73.554 65.5836 73.3943 65.3793 73.121 65.2406C73.3036 65.1046 73.4403 64.8759 73.4403 64.6249C73.4403 64.2351 73.1656 63.8718 72.7082 63.8718C72.5025 63.8718 72.3665 63.9415 72.2068 64.0977C72.1622 63.6891 71.9328 63.3008 71.4984 63.3008C71.1561 63.3008 70.9037 63.5511 70.9037 63.9409C70.9037 64.3034 71.1554 64.6019 71.1554 64.9895Z" fill="#2F2F2F"/>
<path d="M58.6399 60.7443C60.4667 61.1982 61.3801 62.1806 61.5621 63.3458C61.7448 64.4642 61.9728 65.379 62.4065 65.8343C62.9776 66.4751 64.0967 67.0426 65.0791 67.0426C65.9012 67.0426 66.5622 66.7714 66.5622 66.017C66.5622 65.1942 65.4438 63.3451 63.7996 63.3451C63.64 63.3451 63.4343 63.3688 63.2056 63.3688C62.9999 63.3688 62.7028 63.3234 62.5208 63.1631C62.1562 62.8423 62.0411 61.1299 61.3564 60.1028C60.6034 58.9607 59.7813 58.6406 58.6629 58.6406C57.8645 58.6406 56.9727 59.0736 56.9727 59.7137C56.9727 60.1042 57.1784 60.3775 58.6399 60.7443ZM65.0108 65.858C64.3247 65.858 63.2976 65.1259 63.2976 64.7145C63.2976 64.3714 63.6176 64.1887 63.8673 64.1887C64.439 64.1887 65.4654 64.8986 65.4654 65.4919C65.4661 65.6516 65.3517 65.858 65.0108 65.858Z" fill="#2F2F2F"/>
<path d="M62.9118 48.0681C62.9118 46.6067 66.3835 45.8306 66.3835 44.0261C66.3835 43.7291 66.2691 43.2047 66.0634 42.8164C67.2725 43.4781 68.1636 44.5979 68.1636 45.5106C68.1636 47.0864 66.5201 47.8171 66.5201 48.7996C66.5201 49.941 68.2779 50.1237 68.2779 51.5391C68.2779 52.7029 66.6108 54.0507 66.6108 55.5574C66.6108 56.7219 67.4335 57.6799 68.6879 57.8403C68.2772 57.9316 67.9126 58 67.5242 58C65.2169 58 62.8428 56.1055 62.8428 53.8443C62.8428 52.7259 63.3225 51.7455 64.0518 51.0371C64.6926 51.5851 65.3313 51.9498 65.7427 51.9498C66.1073 51.9498 66.2684 51.7678 66.2684 51.4938C66.2691 50.648 62.9118 49.8727 62.9118 48.0681ZM70.1961 59.5995C69.4131 59.9579 69.1007 59.8965 69.1007 60.6963C69.1007 60.9926 69.0317 61.3789 69.0317 61.5853C69.0317 61.8593 69.077 62.0197 69.3963 62.0197C70.2191 62.0197 71.5209 60.6273 71.5209 59.4391C71.5209 59.1184 71.3375 58.9838 71.1318 58.9838C70.9491 58.9838 70.7448 59.3478 70.1961 59.5995ZM70.1048 57.9546C70.1048 56.9276 67.9809 56.9046 67.9809 55.3518C67.9809 54.9627 68.2312 54.3017 68.7346 53.5926C68.941 54.78 69.4186 55.3971 70.4478 55.7862C72.4789 56.5385 72.7537 57.6799 72.7537 58.8918C72.7537 60.9473 71.3152 63.5042 67.6162 63.5042C64.6473 63.5042 62.5234 60.8546 62.5234 58.617C62.5234 58 62.6831 57.3159 63.0715 57.3159C63.4145 57.3159 63.5282 57.5893 63.8022 57.8626C64.8306 58.8918 65.9491 59.1644 67.5702 59.1644C69.0317 59.1651 70.1048 58.5717 70.1048 57.9546Z" fill="#2F2F2F"/>
<path d="M53.9344 58.453C53.9901 58.9299 53.6491 59.3601 53.1729 59.4159C52.6959 59.4717 52.2636 59.13 52.2092 58.6538C52.1535 58.1761 52.4945 57.7445 52.9714 57.6888C53.4484 57.633 53.8793 57.9753 53.9344 58.453ZM49.6671 59.351C49.764 60.1306 50.4912 60.7219 51.3119 60.6305C51.6082 60.5977 51.883 60.5169 52.0664 60.4025C52.2491 61.1325 52.8619 61.6025 53.6902 61.4937C54.5311 61.3843 55.103 60.7219 55.0123 59.8768C54.9886 59.6495 54.9433 59.5107 54.8757 59.351C54.8757 59.351 54.9865 59.3392 55.0702 59.3238C55.8951 59.1677 56.4508 58.506 56.3818 57.7069C56.2911 56.8848 55.5534 56.2747 54.7857 56.3695C54.488 56.4058 54.2132 56.5194 54.0298 56.6791C53.8234 55.9951 53.1798 55.4003 52.3013 55.5454C51.5071 55.6772 50.9821 56.3507 51.0615 57.2049C51.0748 57.3436 51.107 57.5019 51.176 57.6609C51.176 57.6609 51.0413 57.6811 50.9486 57.6943C50.282 57.7933 49.559 58.4641 49.6671 59.351Z" fill="#2F2F2F"/>
</g>
</g>
<defs>
<clipPath id="clip0_1_8159">
<rect width="150" height="115" fill="white"/>
</clipPath>
<clipPath id="clip1_1_8159">
<rect width="150" height="115" fill="white"/>
</clipPath>
</defs>
</svg>
